<?xml version="1.0" encoding="UTF-8"?>
<svg id="servicemenIcon" xmlns="http://www.w3.org/2000/svg" xmlns:xlink="http://www.w3.org/1999/xlink" viewBox="0 0 626.11 630.47">
  <defs>
    <style>
      .cls-1 {
        fill: url(#linear-gradient);
      }

      .cls-1, .cls-2, .cls-3, .cls-4, .cls-5 {
        stroke-width: 0px;
      }

      .cls-2 {
        fill: url(#linear-gradient-5);
      }

      .cls-3 {
        fill: url(#linear-gradient-2);
      }

      .cls-4 {
        fill: url(#linear-gradient-3);
      }

      .cls-5 {
        fill: url(#linear-gradient-4);
      }
    </style>
    <linearGradient id="linear-gradient" x1="319.18" y1="0" x2="319.18" y2="200.43" gradientUnits="userSpaceOnUse">
      <stop offset="0" stop-color="red"/>
      <stop offset=".84" stop-color="#4d0e12"/>
    </linearGradient>
    <linearGradient id="linear-gradient-2" x1="313.06" y1="189.95" x2="313.06" y2="630.47" xlink:href="#linear-gradient"/>
    <linearGradient id="linear-gradient-3" x1="319.57" y1="502.98" x2="319.57" y2="577.28" xlink:href="#linear-gradient"/>
    <linearGradient id="linear-gradient-4" x1="536.73" y1="395.62" x2="536.73" y2="422.04" xlink:href="#linear-gradient"/>
    <linearGradient id="linear-gradient-5" x1="529.98" y1="345.7" x2="529.98" y2="397.31" xlink:href="#linear-gradient"/>
  </defs>
  <path class="cls-1" d="m393.61,90.64v-36.51c-4.08-33.96-29.87-36-29.87-36,0,0-10.21-18.13-44.34-18.13-73.7,0-75.66,56.43-75.66,56.43v34.21s-8.68,1.28-8.68,16.09c0,37.53,17.36,36.51,17.36,36.51,0,0,15.32,57.19,66.98,57.19s68.09-57.19,68.09-57.19c0,0,15.82.76,15.82-35.49-.25-16.34-9.7-17.11-9.7-17.11Zm-11.74,37.79h-5.81s-13.94,55.66-56.66,55.66-55.74-55.92-55.74-55.92l-6.9-.25s-5.1-6.64-5.1-20.43c11.48-.25,14.55-6.38,14.55-11.23s1.28-25.02,1.28-25.02c34.21,2.55,59.23-.51,84.76-20.43,2.04,18.89,12.77,24,20.43,30.64,0,15.83-2.05,26.04,15.32,26.04,0,17.87-6.13,20.94-6.13,20.94Z"/>
  <path class="cls-3" d="m624.17,411.32c-6.64-8.17-10.98-1.28-15.32,3.58-4.34,4.85-16.09,15.06-39.83,21.19-23.75,6.12-109.28,0-109.28,0,0,0,5.36-8.94,8.94-16.34,43.66-41.62,28.34-85.02,28.34-85.02l-31.15-84.26s-8.68-17.11-19.66-28.08c-24.26-24.26-75.58-32.43-75.58-32.43l-2.29,57.45h-97.79l-2.55-57.45s1.27-.77-38.05,10.47-54.12,45.7-54.12,45.7l-32.94,84.64s-2.3,6.76-2.81,18.51c0,24.55,18.93,35.58,19.64,35.99-1.88-.72-122.31-46.98-125.6-48.25-3.32-1.27-29.36-14.81-33.44-1.27-4.09,13.53,11.23,23.49,22.72,28.08,11.49,4.6,47.23,22.21,158.55,56.17,80.89,24.68,138.73,30.88,164.3,32.43H41.4c-3.03,0-5.49,2.46-5.49,5.49v28.85c0,3.03,2.46,5.49,5.49,5.49h35.11v131.61c0,3.04,2.45,5.49,5.49,5.49h20.68c3.03,0,5.49-2.45,5.49-5.49v-131.61h422.04v132.72c0,3.03,2.46,5.49,5.49,5.49h20.68c3.03,0,5.49-2.46,5.49-5.49v-132.72h35.36c3.03,0,5.49-2.46,5.49-5.49v-28.85c0-3.03-2.46-5.49-5.49-5.49h-12.73c11.24-2.28,24.19-11.68,28.94-15.07,5.36-3.83,17.36-17.87,10.73-26.04Zm-353.11-132.25h96.25v34.85c0,2.75-2.22,4.98-4.97,4.98h-86.3c-2.75,0-4.98-2.23-4.98-4.98v-34.85Zm-32.34,120.74l-70.98-25.94s-8.17-7.14-11.23-16.34c-3.07-9.19,1.19-23.32,1.19-23.32l27.2-69.65c.21-.56.36-1.14.45-1.74.37-2.51,2.61-11.35,15.92-27.5,20.77-22.81,43.75-23.49,43.75-23.49v42.73l-15.66,87.48-12.26-6.29s6.98-34.47,6.98-36.77,1.62-7.19-3.74-8.85c-5.37-1.66-6.64,2.38-6.64,2.38l-9.53,41.96s-2.3,4.98,0,8.68c3.32,5.87,50.55,22.72,50.55,22.72,0,0-8.21,8.92-11.15,16.45-2.94,7.53-4.85,17.49-4.85,17.49Zm76.77,21.81c-3.58,8.42-12.2-6.09-12.96-8.61-1.22-1.59-2.04-.28-2.04,1.25s-6.03,12.81-23.39,12.04-25.91-13.36-26.55-24.85c-.64-11.49,14.64-28.17,14.64-28.17,16.98,2.42,52.08,21.79,50.3,48.34Zm53.87,8.47l-40.47-3.75v-7.49c.25-19.15-17.87-37.91-17.87-37.91,21.7-.64,27.06,20.81,26.55,31.79l31.79,1.66v15.7Zm64.72,13.4c-8.42,5.36-20.94,8.94-36.25,2.81-8.56-12.51.49-23.67,2.17-26.17.85-1.28,1.02-3.19-1.66-1.92,0,0-6.18,10.74-11.49,9.96-5.24-.76-2.43-16.21,9.95-19.78,0,0,11.49-.39,11.49-.01.14-.21,4.74-7.03,13.28-7.91,12.77,1.02,28.34,16.09,28.85,22.21.51,6.13-7.91,15.45-16.34,20.81Zm14.3-46.08c-4.85-3.24-17.11-8.05-17.11-8.05l12.04-24-12.91-37.79c-4.94-8.94-9.94-5.1-9.6,1.28.34,6.39,6.51,32.68,6.51,32.68-.17,9.88-10.34,25.15-10.34,25.15l-23.53-133.4v-41.87s29.7,5.02,46.73,25.78c17.02,20.77,44.59,109.02,44.59,109.02,0,0,4.6,33.96-24.13,62.18,0,0-7.4-7.75-12.25-10.98Z"/>
  <path class="cls-4" d="m430.26,574.21c.07,1.67-1.28,3.07-2.95,3.07h-215.48c-1.67,0-3.02-1.4-2.95-3.07l2.58-68.38c.06-1.59,1.37-2.85,2.96-2.85h210.3c1.59,0,2.9,1.26,2.96,2.85l2.58,68.38Z"/>
  <path class="cls-5" d="m560.46,410.81s-40.97,11.11-43.4,11.23c-2.43.13-7.02-4.85-1.28-10.21l40.47-16.21,4.21,15.19Z"/>
  <path class="cls-2" d="m552.42,356.04l-38.9,40.64c-.74.77-1.95.85-2.78.17l-2.44-1.97c-.82-.66-1-1.85-.42-2.74l30.88-46.44,13.66,10.34Z"/>
</svg>