<?xml version="1.0" encoding="UTF-8"?>
<svg id="Layer_1" data-name="Layer 1" xmlns="http://www.w3.org/2000/svg" viewBox="0 0 608.97 608.97">
  <defs>
    <style>
      .cls-1 {
        fill: #fefefe;
      }

      .cls-1, .cls-2, .cls-3, .cls-4, .cls-5, .cls-6, .cls-7 {
        stroke-width: 0px;
      }

      .cls-2 {
        fill: #020202;
      }

      .cls-3 {
        fill: #f3f3f3;
      }

      .cls-4 {
        fill: #010101;
      }

      .cls-6 {
        fill: #fdfdfd;
      }

      .cls-7 {
        fill: #f2f2f2;
      }
    </style>
  </defs>
  <path class="cls-1" d="m304.37,608.79c-99.18,0-198.37-.07-297.55.18-6.02.02-6.8-1.52-6.79-7.06C.2,403.55.21,205.19,0,6.82,0,.8,1.51.03,7.05.03,205.42.2,403.78.21,602.15,0c6.02,0,6.8,1.51,6.79,7.05-.17,198.36-.18,396.73.03,595.09,0,6.02-1.51,6.81-7.05,6.79-99.18-.2-198.36-.15-297.55-.15Z"/>
  <path class="cls-5" d="m176.84,255.67h8.19c83.12,0,166.23,0,249.35,0,7.1,0,15.92-8.93,15.58-15.93-.3-6.05-4.89-7.01-9.55-7.33-12.36-.87-24.76-1.31-37.1-2.33-17.81-1.47-35.03-5.22-50.47-14.86-22.57-14.1-27.39-31.6-15.28-55.34,4.52-8.86,10.62-16.56,17.45-23.72,13.07-13.7,27.92-25.34,42.6-37.21,4.27-3.45,7.97-2.89,12.24-.13,49.22,31.8,79.45,76.28,89.15,134.23,16.78,100.29-49.41,200.63-153.83,222.69-35.96,7.6-71.63,6.05-106.41-6.82-3.03-1.12-7.7-1.37-7.98-5.07-.24-3.17,4.2-4.06,6.78-5.58,48.79-28.88,95.67-60.37,137.07-99.42,19.1-18.02,36.67-37.4,51.88-58.84,1.57-2.21,3.1-4.44,5.41-7.76h-9.4c-82.55,0-165.11,0-247.66,0-7.51,0-15.92,8.04-16.01,15.42-.08,6.09,4.28,7.45,9.04,7.78,12.64.89,25.32,1.29,37.95,2.37,18.1,1.54,35.59,5.45,51.14,15.48,21.28,13.73,26.04,30.84,14.84,53.57-5.54,11.25-13.59,20.64-22.47,29.36-11.88,11.67-24.94,21.94-37.85,32.4-4.51,3.65-8.33,3.24-12.93.23-52.99-34.6-84.52-83.01-90.12-146.15-8.98-101.34,56.09-188.83,155.53-210.61,35.61-7.8,71.06-5.96,105.58,6.73,3.08,1.13,7.84,1.39,8.32,4.82.53,3.75-4.32,4.53-7.05,6.15-48.76,28.92-95.62,60.45-137.01,99.51-20.91,19.74-39.92,41.11-56.98,66.37Z"/>
  <path class="cls-5" d="m40.96,542.85c-8.73,0-17.47-.22-26.19.1-4.48.16-6.39-.69-6.27-5.81.36-14.92.25-29.85.05-44.78-.05-3.98,1.03-5.31,5.17-5.26,16.61.23,33.24-.16,49.85.19,14.13.3,20.42,7.48,19.44,21.47-.17,2.38.23,4.06,1.49,6.16,7.79,13.01,0,26.71-15.65,27.87-.56.04-1.13.04-1.69.04-8.73,0-17.46,0-26.19,0Z"/>
  <path class="cls-5" d="m549.91,542.86c-9,0-18-.15-26.99.07-3.94.1-5.44-1.07-5.39-5.21.2-15.18.22-30.36-.01-45.54-.07-4.28,1.59-5.09,5.42-5.06,17.15.17,34.31-.35,51.44.21,23.65.77,35.85,25.21,22.9,45.35-4.9,7.62-12.89,9.65-21.23,10.01-8.7.38-17.43.09-26.14.09,0,.02,0,.04,0,.07Z"/>
  <path class="cls-5" d="m499.66,528.84c4.84,4.94,9.06,9.24,13.65,13.93-13.11-.51-26.63,3.66-36.88-9.64-4.21-5.46-12.23-2.03-18.5-2.13-2.55-.04-1.2,3.17-1.66,4.9-.63,2.37,1.89,6.66-2.47,6.71-4.44.05-10.07,2.83-13.31-1.98-3.83-5.68-7.93-11.28-7.33-19.14.73-9.5.38-19.1.08-28.65-.14-4.42,1.24-5.81,5.7-5.74,16.02.25,32.05-.24,48.05.22,18.51.53,27.21,9.72,25.73,25.58-.73,7.79-5.73,11.78-13.05,15.94Z"/>
  <path class="cls-5" d="m233.28,526.37c8.97,0,18.16.42,27.28-.14,6.58-.41,8.74,1.46,8.47,8.27-.24,5.95-.77,8.79-8.01,8.57-19.38-.6-38.8-.08-58.19-.34-2.87-.04-7.85,2.52-8.47-2.33-.61-4.82-2.51-10.61,3.53-14.42,10.67-6.73,21.11-13.84,31.7-22.56-9.22,0-18.49-.55-27.65.17-7.3.57-7.97-2.64-8.15-8.69-.19-6.35,1.57-8.02,7.93-7.87,19.67.45,39.36.08,59.04.26,2.69.02,7.22-2.04,7.72,2.4.52,4.62,2.45,10.12-3.21,13.73-10.17,6.5-20.21,13.2-30.25,19.9-.75.5-2.32.64-1.73,3.05Z"/>
  <path class="cls-4" d="m347.83,525.69q-6.99,17.17-22.65,17.17c-14.34,0-28.68.17-43.01-.14-2.85-.06-7.85,2.59-8.4-2.46-.53-4.84-2.41-10.56,3.7-14.36,10.7-6.65,21.08-13.8,31.58-22.48-9.25,0-18.54-.57-27.73.18-7.43.6-7.8-2.84-8.08-8.75-.31-6.53,1.77-7.93,7.99-7.8,19.39.42,38.79.05,58.19.27,2.92.03,7.8-2.27,8.51,2.41.73,4.85,2.26,10.5-3.85,14.25-10.75,6.61-21.15,13.77-33.24,21.71h37Z"/>
  <path class="cls-5" d="m436.34,542.84c-7.84,0-14.47.04-21.09-.04-1.05-.01-2.46-.26-3.09-.95-11.28-12.47-25.8-3.6-38.59-5.95-7.06,11.65-18.49,5.07-29.97,7.87,7.06-11.98,13.1-22.23,19.15-32.48,1.43-2.42,2.86-4.83,4.29-7.25q10.91-18.43,32.19-16.91c2.8.19,4.75.87,6.2,3.34,10.04,17.11,20.16,34.19,30.9,52.37Z"/>
  <path class="cls-4" d="m129.12,542.85c-9.55,0-19.11-.01-28.66,0-5.88,0-8.66-2.72-8.59-8.8.17-13.77.22-27.54-.04-41.3-.09-4.53,1.52-5.54,5.8-5.66,17.25-.47,17.25-.63,17.25,16.25,0,5.06.52,10.18-.12,15.16-.92,7.07,2.21,8.26,8.4,8,10.94-.46,21.93.27,32.86-.26,7.84-.38,5.82,4.76,5.98,8.87.15,4.13,1.22,8.44-5.92,7.91-8.94-.66-17.97-.16-26.96-.17Z"/>
  <path class="cls-2" d="m189.35,515.37c0,7.58-.17,15.16.07,22.73.12,3.64-1.02,4.65-4.7,4.88-18.3,1.14-18.29,1.27-18.29-16.79,0-11.23.12-22.45-.06-33.68-.06-3.87,1.01-5.23,5.16-5.43,17.83-.87,17.82-1.04,17.82,16.51,0,3.93,0,7.86,0,11.79Z"/>
  <path class="cls-7" d="m47.59,527.81c-3.94,0-7.89-.03-11.83.02-2.19.03-3.81-.27-3.71-3.12.09-2.39.83-3.63,3.44-3.6,8.17.1,16.34.01,24.51.12,2.04.03,4.18.79,4.22,3.21.06,3.09-2.49,3.31-4.79,3.35-3.94.07-7.89.02-11.83.02Z"/>
  <path class="cls-3" d="m45.53,508.87c-3.35,0-6.71-.07-10.06.03-2.55.08-3.35-1.1-3.43-3.52-.1-2.74,1.29-3.23,3.56-3.21,6.43.06,12.86,0,19.29.06,2.28.02,4.85.23,4.76,3.31-.09,2.94-2.58,3.26-4.89,3.31-3.07.07-6.15.02-9.22.02Z"/>
  <path class="cls-1" d="m557.02,526.34c-18.08.03-17.95.04-16.7-18.22.25-3.7,1.36-4.86,4.95-4.76,8.16.21,16.33.13,24.49.09,8.84-.04,7.55,6.3,7.68,11.89.13,5.64.28,11.14-7.75,11.02-4.22-.07-8.45-.01-12.67-.01Z"/>
  <path class="cls-6" d="m470.94,514.33c-2.81,0-5.64-.21-8.42.05-4.36.42-6.51-.5-6.42-5.71.08-4.81,2.02-5.49,6.03-5.33,6.45.25,12.91-.02,19.37.11,3.94.08,8.8.08,8.52,5.58-.27,5.13-4.89,5.31-8.97,5.3-3.37,0-6.74,0-10.11,0Z"/>
  <path class="cls-7" d="m381.66,520.31c2.94-5.03,5.44-9.3,8.14-13.91,4.03,3.93,5.91,8.79,9.06,13.91h-17.19Z"/>
</svg>