<?xml version="1.0" encoding="utf-8"?>
<!-- Generator: Adobe Illustrator 24.3.0, SVG Export Plug-In . SVG Version: 6.00 Build 0)  -->
<svg version="1.1" id="Layer_1" xmlns="http://www.w3.org/2000/svg" xmlns:xlink="http://www.w3.org/1999/xlink" x="0px" y="0px"
	 viewBox="0 0 380 231.3" style="enable-background:new 0 0 380 231.3;" xml:space="preserve">
<g>
	<path d="M262.1,136.8C262,136.8,262,136.8,262.1,136.8c-24.6-8.6-72.2-47.6-73.2-50.1c-0.9,2.5-48.5,41.5-73.1,50.1c0,0,0,0-0.1,0
		L188.9,8.1L262.1,136.8z"/>
	<g>
		<path d="M37.2,179.1c-4.8,0.2-19.5,0-19.5,0v43.1c0,0,13.3,0,17.6,0c4.3,0,21.4-2.6,21.4-21.4S41.9,178.9,37.2,179.1z M35.6,214.4
			c-2.3,0-9.6,0-9.6,0v-27.9c0,0,8.1,0.2,10.7,0c2.6-0.1,10.7,1.9,10.7,14S38,214.4,35.6,214.4z"/>
		<polygon points="59.6,179.1 77.7,206.5 70.1,222.2 80,222.2 101.4,179.1 91.1,179.1 82.4,198 70,179.1 		"/>
		<polygon points="108.8,179.1 108.8,222.2 117.6,222.2 117.6,197.9 143.2,222.2 146.8,222.2 146.8,179.1 137.4,179.1 137.4,203.9 
			112,179.1 		"/>
		<path d="M176.1,177.4l-22.7,44.8h9l4.3-7.4l18.7,0.1l4.1,7.3h9.5L176.1,177.4z M169.8,207.5l6.4-13.5l6.4,13.5H169.8z"/>
		<path d="M295.9,177.4l-22.7,44.8h9l4.3-7.4l18.7,0.1l4.1,7.3h9.5L295.9,177.4z M289.6,207.5L296,194l6.4,13.5H289.6z"/>
		<polygon points="244,179.1 265.7,179.1 276.6,179.1 272.9,187.5 262.7,187.5 262.7,222.2 254.1,222.2 254.1,187.6 239.8,187.6 		
			"/>
		<path d="M217.9,204.1c3.2-0.1,8.9,2,8.9,6.5s-3.7,5.2-6.8,5.2c-3.1,0-10.8-2.9-12.7-5.7l-3.9,6.7c4.2,4.5,11.1,6.1,16.9,6.4
			c5.8,0.3,15.4-2.9,15.3-13.6s-11.6-12.7-15.4-13.1c-3.8-0.4-7.7-2.3-7.7-6.1c0-3.7,5.1-4.8,7.2-4.8s6.9,0.4,10.2,3.7l3.5-6.3
			c-1.4-2.3-10.2-4.7-13.7-4.8c-13.5-0.3-15.5,8.3-15.6,12.6S207.7,204.3,217.9,204.1z"/>
		<path d="M352.3,204.7c0,0,7.3-0.7,7.3-12.4c0-11-11.7-13.1-11.7-13.1h-22.4v43.1h8.9v-15.9h9.2l9.3,15.9h9.4L352.3,204.7z
			 M346.7,199.1h-12.9v-12.6h13.8c0,0,4,1.2,4,6.3C351.6,197.8,346.7,199.1,346.7,199.1z"/>
	</g>
</g>
</svg>
