<?xml version="1.0" encoding="UTF-8"?>
<svg id="Layer_1" data-name="Layer 1" xmlns="http://www.w3.org/2000/svg" viewBox="0 0 555.85 490.13">
  <defs>
    <style>
      .cls-1 {
        stroke-width: 0px;
      }
    </style>
  </defs>
  <path class="cls-1" d="m398.6,382.67c-33.04,0-66.09-.02-99.13.03-3.18,0-5.93-.66-7.54-3.61-1.56-2.84-.62-5.47.89-8.08,33.04-57.17,66.05-114.36,99.07-171.55,2.44-4.23,5.36-5.96,8.78-4.42,1.81.81,3.5,2.57,4.52,4.32,19.26,33.15,38.4,66.37,57.58,99.57,13.85,23.98,27.7,47.96,41.59,71.92,1.55,2.68,2.65,5.33.96,8.32-1.75,3.11-4.66,3.54-7.88,3.53-32.94-.04-65.89-.02-98.83-.02h0Z"/>
  <path class="cls-1" d="m174.12,382.68c-32.95,0-65.89.03-98.84-.06-2.07,0-4.4-.46-6.14-1.5-3.14-1.87-3.48-5.62-1.3-9.43,6.48-11.28,13-22.54,19.51-33.81,26.67-46.17,53.34-92.34,80.02-138.51,3.8-6.58,9.53-6.54,13.34.07,33.08,57.27,66.15,114.54,99.23,171.82,3.64,6.31.66,11.41-6.69,11.42-33.05,0-66.09,0-99.14,0h0Z"/>
  <path class="cls-1" d="m286.38,188.06c-33.24,0-66.48,0-99.72,0-5.39,0-8.38-2.94-7.72-7.65.16-1.13.69-2.26,1.27-3.26,29.46-51.05,58.94-102.08,88.42-153.12,3.7-6.4,7.37-12.82,11.1-19.2,3.73-6.4,9.54-6.42,13.2-.07,21.53,37.3,43.06,74.6,64.59,111.9,11.53,19.97,22.9,40.04,34.71,59.85,3.64,6.11.12,11.75-6.72,11.69-33.04-.29-66.09-.13-99.13-.13Z"/>
  <path class="cls-1" d="m477.74,441.29c-2.18,3.62-4,6.86-6.09,9.9-.44.64-1.91.79-2.9.79-15.39.05-30.78-.04-46.16.1-3.41.03-6.88.52-10.2,1.31-3.05.72-5.2,2.93-6.87,6.29h61.6c-2.3,3.79-4.11,7-6.21,10.01-.43.61-1.96.61-2.99.61-18.64.04-37.29.03-55.93.03-2.66,0-6.07,3.47-5.7,6.04.1.72,1.07,1.6,1.83,1.87.97.34,2.14.18,3.22.18,17.07,0,34.13,0,51.2,0,1.04,0,2.08,0,3.79,0-2.36,3.9-4.31,7.28-6.46,10.54-.36.55-1.55.76-2.36.76-18.15.04-36.3.1-54.45-.01-7.2-.05-12.09-3.51-12.95-9.29-.34-2.26.16-4.98,1.18-7.05,2.78-5.65,6.05-11.06,9.11-16.57,5.67-10.19,14.84-15.12,26-15.38,20.2-.48,40.42-.14,61.36-.14Z"/>
  <path class="cls-1" d="m112.84,489.76c2.26-3.9,4.02-7.19,6.08-10.28.47-.71,1.99-1.01,3.03-1.01,19.24-.06,38.47-.03,57.71-.07,1.85,0,3.84-.06,5.51-.73,1.11-.45,1.77-2.03,2.63-3.11-.95-.69-1.83-1.85-2.86-2-6.34-.88-12.71-1.5-19.07-2.26-7.92-.95-15.92-1.49-23.72-3.04-10.49-2.08-12.74-10.13-5.46-18.05,6.15-6.69,14.38-7.91,22.75-8,19.04-.22,38.08-.08,57.12-.09.59,0,1.17.07,2.43.15-2.21,3.61-4.13,6.99-6.34,10.16-.42.6-1.98.56-3.01.56-16.87.03-33.74-.02-50.61.06-2.12.01-4.32.4-6.31,1.12-.93.34-1.44,1.86-2.14,2.85.96.54,1.87,1.43,2.87,1.55,11.25,1.31,22.52,2.46,33.78,3.76,2.92.34,5.89.75,8.68,1.64,9.33,2.98,11.74,12.34,5.16,19.64-3.93,4.36-9.09,6.25-14.74,6.58-6.98.4-13.99.5-20.99.53-16.08.07-32.16.02-48.24.03-1.16,0-2.33,0-4.26,0Z"/>
  <path class="cls-1" d="m458.83,489.76c1.64-2.89,2.92-5.18,4.23-7.45,7.53-13.06,15.1-26.1,22.58-39.19.85-1.48,1.76-2.03,3.47-2.03,16.77.06,33.53-.1,50.29.15,3.52.05,7.27.99,10.47,2.47,5.54,2.56,7.11,7.28,5.2,13.1-2.06,6.29-6.65,10.04-12.79,11.58-5.09,1.28-10.4,1.73-15.75,2.56,5.61,5.88,11.42,11.96,17.95,18.81-2.93,0-5.04-.28-7.06.05-7.75,1.27-13.58-1.34-18.27-7.67-2.73-3.69-6.27-6.82-9.63-10-1.01-.96-2.65-1.69-4.03-1.74-5.52-.2-11.04,0-16.56-.13-1.85-.05-2.83.63-3.68,2.18-2.77,5-5.73,9.89-8.49,14.89-.96,1.74-2.07,2.55-4.16,2.46-4.32-.17-8.66-.05-13.77-.05Zm34.01-30.29c14.12,0,27.6.12,41.07-.13,2.01-.04,4.27-1.43,5.9-2.8,1.7-1.43.93-3.39-1.29-3.9-1.53-.35-3.12-.56-4.68-.56-11.62-.06-23.24-.06-34.87-.02-.76,0-1.85.3-2.23.84-1.37,2-2.5,4.16-3.9,6.57Z"/>
  <path class="cls-1" d="m0,489.76c1.11-2.01,1.83-3.38,2.6-4.73,5.41-9.39,10.95-18.71,16.23-28.17,5.88-10.53,15.17-15.35,26.74-15.56,19.71-.36,39.44-.16,59.15-.19.36,0,.72.13,1.5.28-1.98,3.43-3.72,6.71-5.76,9.8-.42.63-1.9.78-2.89.78-14.89.05-29.78,0-44.66.06-2.95.01-5.92.18-8.84.56-4.24.55-7.59,2.53-9.51,7.07h60.86c-2.19,3.79-3.91,7.04-5.94,10.08-.4.6-1.97.56-3,.56-18.34.03-36.68.06-55.02-.02-2.29-.01-3.7.49-4.85,2.69-2.59,4.97-5.61,9.73-8.34,14.64-.88,1.58-1.92,2.24-3.74,2.19-4.61-.11-9.23-.04-14.54-.04Z"/>
  <path class="cls-1" d="m346.43,489.78c3.88-6.78,7.38-12.89,11.14-19.46-1.71,0-2.94,0-4.17,0-12.33,0-24.66.06-36.99-.05-2.14-.02-3.36.57-4.4,2.48-2.77,5.11-5.72,10.13-8.73,15.1-.52.85-1.71,1.79-2.62,1.83-4.72.18-9.44.09-14.8.09.98-1.85,1.68-3.3,2.48-4.68,8.04-13.91,16.12-27.8,24.1-41.74.96-1.68,1.99-2.35,3.93-2.29,4.42.15,8.84.05,13.93.05-3.61,6.3-6.97,12.14-10.58,18.43,1.37.09,2.38.21,3.4.21,12.53,0,25.06-.06,37.58.04,2.29.02,3.57-.73,4.64-2.72,2.57-4.77,5.32-9.45,8.14-14.08.51-.84,1.7-1.77,2.61-1.8,4.72-.18,9.44-.08,14.67-.08-.48,1.07-.75,1.84-1.15,2.54-8.42,14.6-16.88,29.18-25.25,43.81-.94,1.64-1.94,2.45-3.92,2.38-4.42-.14-8.85-.04-14.01-.04Z"/>
  <path class="cls-1" d="m283.49,478.45c-2.32,3.85-4.21,7.16-6.31,10.33-.41.62-1.67.97-2.54.97-16.57.05-33.15.22-49.72-.03-12.54-.19-17.98-8.07-13.54-19.83,6.31-16.71,18.38-26.98,36.42-27.95,18.59-1,37.26-.59,55.9-.79.25,0,.5.2,1.06.43-1.97,3.28-3.79,6.53-5.87,9.59-.44.65-1.89.83-2.88.84-11.54.06-23.09-.13-34.63.12-5.98.13-12.1.36-17.89,1.7-9.2,2.12-14.65,8.85-17.73,17.46-1.31,3.66.23,5.92,4.03,6.61,1.93.35,3.91.5,5.88.51,14.6.05,29.2.03,43.8.04,1.08,0,2.15,0,4.02,0Z"/>
  <path class="cls-1" d="m86.77,489.77c3.74-6.48,7.08-12.26,10.41-18.04,5.46-9.47,10.97-18.91,16.34-28.42.96-1.7,2.02-2.32,3.95-2.25,4.42.15,8.84.05,13.77.05-.62,1.22-1.01,2.08-1.48,2.89-8.36,14.5-16.77,28.97-25.07,43.5-.96,1.68-1.99,2.38-3.94,2.32-4.4-.14-8.81-.04-13.99-.04Z"/>
</svg>