<?xml version="1.0" encoding="UTF-8"?>
<svg id="Layer_1" data-name="Layer 1" xmlns="http://www.w3.org/2000/svg" viewBox="0 0 346.4 216.42">
  <defs>
    <style>
      .cls-1 {
        stroke-width: 0px;
      }
    </style>
  </defs>
  <path class="cls-1" d="m234.13,0h-61.73C151.83,0,131.26,0,110.68.01c-8.42.01-14.57,6.22-14.57,14.64v123.15c0,8.66,6.21,14.82,14.89,14.82,41-.01,82-.01,123,0,8.6,0,14.73-6.15,14.73-14.77,0-41.05,0-82.1.01-123.15C248.74,6.15,242.65,0,234.13,0Zm-78.01,49.53c20.61,11.6,41.22,23.2,61.84,34.77,4.63,2.6,6.88,6.47,6.86,11.76-.03,8.49,0,16.98,0,25.47,0,3.63-2.17,6.06-5.75,6.42-18.56,1.86-37.17,2.58-55.81,2.22-12.41-.23-24.81-.93-37.17-2.19-3.88-.4-6.03-2.77-6.04-6.65-.02-4.85-.01-9.7,0-14.56,0-2.45.99-3.46,3.43-3.47,4.9-.01,9.8,0,14.71-.01,1.99,0,3.8.63,5.52,1.59,4.02,2.25,8.04,4.48,12.04,6.77,2.16,1.23,4.4,1.86,6.92,1.83,7.91-.07,15.82-.02,23.73-.02,2.91,0,4.6-1.21,5.28-3.78.73-2.73-.3-5.19-2.72-6.55-12.29-6.91-24.59-13.81-36.88-20.73-.25-.14-.47-.33-.7-.5-2.61-1.29-5.15-2.71-7.6-4.28-4.91-2.73-9.82-5.46-14.73-8.19-1.98-1.11-4.08-2.06-5.64-3.79-2.25-2.48-3.36-5.41-3.37-8.75-.01-8.58-.01-17.17.01-25.76.01-3.84,2.29-6.2,6.13-6.57,16.96-1.62,33.97-2.36,51.01-2.2,13.98.13,27.92.89,41.84,2.23,3.56.35,5.77,2.82,5.78,6.42.02,4.9.02,9.8.01,14.7,0,2.67-.93,3.57-3.59,3.57-4.56,0-9.12-.05-13.68.03-2.42.04-4.59-.61-6.66-1.77-4.05-2.28-8.1-4.57-12.16-6.84-1.89-1.06-3.89-1.65-6.1-1.64-7.96.05-15.92.02-23.88.02-3.04.01-4.85,1.23-5.52,3.71-.78,2.84.26,5.26,2.89,6.74Z"/>
  <path class="cls-1" d="m250.23,212.99c.03,1.57-.47,1.92-1.93,1.84-2.27-.12-4.56-.08-6.83,0-1.05.04-1.28-.29-1.27-1.3.04-6.3.02-12.61.02-18.92.01-2.14-.12-4.26-.53-6.37-.82-4.23-2.83-6.28-7.09-6.88-2.65-.37-5.33-.35-7.97.15-1,.18-1.98.5-2.79,1.17-.68.27-1.17.77-1.56,1.38-1.84,2-2.07,4.55-2.18,7.05-.32,7.28-.08,14.55-.13,21.83-.02,2.29.09,1.84-1.86,1.85-2.28.03-4.56-.05-6.84.04-1.1.04-1.38-.3-1.37-1.39.03-7.18,0-14.36-.04-21.54-.01-1.2-.16-2.42-.37-3.61-.74-4.26-3.26-6.63-7.67-7.02-2.41-.2-4.84-.26-7.25.2-3.39.64-5.6,2.81-6.27,6.22-.47,2.39-.63,4.8-.62,7.23.01,6.11-.04,12.23.04,18.34.02,1.31-.35,1.63-1.62,1.57-2.47-.11-4.95-.04-7.42-.02-.58,0-1.02.02-1-.81.18-9.02-.41-18.05.42-27.05.09-.97.26-1.92.44-2.88,1.14-6.24,4.86-10.15,10.98-11.58,6.12-1.42,12.32-1.35,18.47-.03,2.3.49,4.4,1.49,6.24,2.97.38.31.66.64,1.22.17,3.02-2.54,6.65-3.52,10.47-3.82,4.8-.38,9.6-.5,14.33.66,6.45,1.59,10.17,5.67,11.23,12.21.49,3.07.71,6.16.71,9.27,0,6.36-.06,12.71.04,19.07Z"/>
  <path class="cls-1" d="m92.06,194.16c0-3.56.04-6.43-.01-9.29-.11-5.72-2.94-9.73-8.27-11.81-1.4-.55-2.85-.94-4.34-1.19-8.97-1.49-17.77-.27-26.54,1.67-.69.15-.82.48-.81,1.09.02,2.09.01,4.17.01,6.26s0,2.06,2.07,1.66c6.67-1.28,13.37-2.37,20.21-1.92,1.89.13,3.79.33,5.46,1.33,1.86,1.1,1.98,3.24.28,4.58-.97.76-2.13,1.11-3.31,1.42-3.39.88-6.89,1.12-10.33,1.67-4.26.67-8.54,1.3-12.46,3.24-2.09,1.03-3.82,2.46-4.86,4.62-3.31,6.9.21,14.6,7.78,16.84,6,1.77,12.17,1.73,18.33,1.34,3.21-.21,6.35-.8,9.31-2.15,3.92-1.78,6.48-4.69,7.21-9.02.61-3.66.09-7.36.27-10.34Zm-9.78,5.08c-.03,3.32-1.48,5.35-4.64,6.42-3.17,1.08-6.47,1.1-9.76,1.01-2.03-.06-4.07-.13-6.03-.75-1.03-.33-2.01-.75-2.57-1.75-.91-1.63-.32-3.38,1.48-4.18,2.2-.99,4.58-1.2,6.92-1.56,4.91-.76,9.85-1.37,14.6-3.59,0,1.6.02,3,0,4.4Z"/>
  <path class="cls-1" d="m38.07,213.59c-4.3,1.78-8.85,2.08-13.41,2.17-7.39.14-14.72-.45-21.93-2.24-1.03-.26-1.38-.65-1.34-1.73.08-2.75.03-5.5.03-8.4,3.28,1.05,6.45,1.9,9.71,2.39,6.16.92,12.34,1.28,18.55.48,1.11-.14,2.2-.39,3.18-.96,1.01-.59,1.47-1.52,1.45-2.67-.02-1.15-.68-1.89-1.68-2.33-1.89-.85-3.94-1.04-5.95-1.24-5.55-.57-11.08-1.16-16.52-2.44-.61-.35-1.28-.53-1.97-.64h-.02s-.01-.01-.01-.01c-.43-.31-.92-.5-1.44-.6-.34-.29-.72-.48-1.17-.55-.69-.47-1.38-.95-2.07-1.43-4.16-4.59-4.67-11.67-1.12-16.12,2.03-2.54,4.89-3.74,7.94-4.51,6.29-1.6,12.7-1.32,19.1-1.05,4.12.17,8.2.68,12.23,1.64.95.22,1.47.54,1.41,1.7-.11,2.28-.06,4.56-.02,6.84.02.84-.14,1.09-1.05.81-7.47-2.29-15.15-2.61-22.89-2.36-1.79.06-3.58.25-5.29.84-1.85.62-2.75,1.73-2.76,3.32-.02,1.39.82,2.42,2.66,3.04,3.57,1.21,7.33,1.33,11.03,1.77,4.09.48,8.19.9,12.17,2.05,5.54,1.6,8.13,4.63,8.44,9.91.36,6.03-2.08,10.17-7.26,12.32Z"/>
  <path class="cls-1" d="m298.26,185.32c-1.31-8.24-5.69-12.39-14-13.46-4.59-.59-9.2-.35-13.8-.2-1.6.06-3.17.39-4.72.81-5.89,1.61-9.56,5.34-10.67,11.38-1.17,6.4-1.22,12.83-.14,19.25,1.19,7.04,5,10.94,11.98,12.47,3.2.7,6.45.66,9.7.65,2.76,0,5.52.01,8.27-.39,7.24-1.03,11.95-5.19,13.18-11.98,1.1-6.15,1.19-12.36.2-18.53Zm-9.97,14.81c-.83,3.94-3.37,6.09-7.4,6.38-1.45.11-2.91.02-4.37.02-1.84.04-3.68.21-5.51-.2-3.64-.81-5.74-2.99-6.34-6.68-.63-3.86-.62-7.73.02-11.59.62-3.75,2.74-6.05,6.53-6.63,3.65-.56,7.35-.57,11.01.05,3.24.56,5.28,2.6,5.99,5.79.94,4.27.97,8.58.07,12.86Z"/>
  <path class="cls-1" d="m169.39,209.12c.14-.3.3-.58.51-.85.08-.15.18-.29.28-.43.03-.15.07-.3.14-.43.29-1.02.65-2.03.86-3.06,1.22-5.96,1.24-11.95.54-17.96-1.02-8.6-5-12.94-13.24-14.33-5.94-1.01-12.01-.99-17.96.1-7.17,1.32-10.98,5.22-12.27,12.35-1.14,6.31-1.06,12.63.02,18.96,1.1,6.46,4.86,10.54,11.18,11.87,7.04,1.47,14.18,1.45,21.22-.11,3.67-.81,6.68-2.83,8.72-6.11,0,0,0,0,.01,0Zm-7.78-9.2c-.8,4.11-3.48,6.37-7.68,6.61-1.35.08-2.71.01-4.07.01-1.93.02-3.86.18-5.78-.24-3.49-.78-5.45-2.98-6.1-6.4-.72-3.84-.72-7.71-.08-11.57.7-4.18,2.83-6.45,6.99-7,3.31-.44,6.69-.46,10,.04,3.96.59,6.05,2.74,6.77,6.71.71,3.94.72,7.91-.05,11.84Z"/>
  <path class="cls-1" d="m346.37,201.22c0,4.03-.03,8.05.02,12.08.01,1.07-.17,1.55-1.4,1.49-2.47-.11-4.95-.09-7.42-.01-1.07.04-1.27-.34-1.27-1.32.02-6.89,0-13.77-.02-20.66,0-1.7-.2-3.39-.53-5.05-.69-3.51-2.73-5.73-6.31-6.31-3.32-.54-6.69-.54-9.99-.04-4.01.61-6.15,3.03-6.77,7.07-.3,1.97-.4,3.96-.4,5.94,0,6.35-.02,12.71.02,19.06,0,.99-.2,1.34-1.27,1.31-2.57-.08-5.14-.05-7.71,0-.79.01-1.12-.15-1.1-1.03.15-8.34-.26-16.68.28-25.01.22-3.35.64-6.67,2.32-9.67,2.18-3.87,5.68-5.93,9.87-6.77,5.99-1.2,12.1-1.25,18.08-.21,8.37,1.45,12.12,5.87,13.13,14.32.59,4.93.41,9.88.47,14.82Z"/>
  <path class="cls-1" d="m96.08,187.33c0-4.75.03-9.5-.02-14.25-.01-1.01.26-1.32,1.28-1.28,2.42.08,4.85.09,7.27,0,1.16-.05,1.33.39,1.32,1.41-.04,8.44-.02,16.87-.02,25.31,0,4.81,2.11,7.17,6.95,7.72,3.54.4,7.07.11,10.6-.19,1.33-.11,2-.06,2.11,1.54.14,2.02.63,4.01.99,6.01.1.59.15,1.01-.68,1.07-6.14.46-12.29,1.08-18.38-.34-4.62-1.08-8.51-3.24-10.4-7.94-.73-1.82-1.01-3.73-1.01-5.68,0-4.46,0-8.92,0-13.38Z"/>
  <polygon class="cls-1" points="5.55 194.82 5.55 194.83 5.54 194.83 5.55 194.82"/>
  <polygon class="cls-1" points="5.55 194.82 5.55 194.83 5.54 194.83 5.55 194.82"/>
  <path class="cls-1" d="m8.19,195.98h-.02s-.01-.01-.01-.01h.01s.01,0,.02.01Z"/>
  <path class="cls-1" d="m8.17,195.97h0s-.01,0-.01,0h.01Z"/>
</svg>