<?xml version="1.0" encoding="UTF-8"?>
<svg id="Layer_1" data-name="Layer 1" xmlns="http://www.w3.org/2000/svg" viewBox="0 0 564.77 448.99">
  <defs>
    <style>
      .cls-1 {
        stroke-width: 0px;
      }
    </style>
  </defs>
  <path class="cls-1" d="m434.82,174.58c-5.02,2.68-10.04,5.36-15.06,8.04-1.14.85-2.72.93-3.66,2.12-5.34,3.33-10.67,6.65-16.01,9.98-2.71,1.23-2.28-1.21-2.87-2.45-11.85-35.06-27.88-67.75-54.7-94.02-11.71-11.47-25.25-19.92-42.29-21.09-6.37-.44-12.56.72-18.78,1.66-3.19.68-6.43,1.24-9.24,3.07l.07-.06c-.84.35-1.72.45-2.62.32-.8-.68-1.55-1.42-2.29-2.1-.02,0,0-.11-.09-.11-.12,1.37,1.44.99,1.85,1.81.52,1.09-.57,1.45-.95,2.12-27.29,15.44-43.7,40.2-57.16,67.3-21.33,42.96-33.6,88.77-41.76,135.8-1.7,9.83-2.77,19.76-4.13,29.65-.23,1.66-.54,3.08-2.23,4.15-14.04,8.89-28.01,17.9-42.02,26.85-.38.24-.92.24-1.71.42,1.33-15.07,3.05-29.9,5.17-44.68,7.57-52.8,19.33-104.59,37.94-154.67,13.31-35.84,29.59-70.14,53.32-100.46,11.66-14.9,25.37-27.53,41.56-37.41.85-1.65,2.78-1.21,4.04-2.08C279.91,0,299.17-3.13,319.16,3.74c15.84,5.45,29.07,15.12,40.78,26.87,22.33,22.39,38.29,49.09,51.74,77.41,4.33,9.11,8.12,18.48,12.16,27.73,1.58,2.57,2.27,5.48,3.08,8.34,1.65,4.88,3.3,9.77,4.94,14.65,1.26,3.3,2.42,6.63,3.01,10.12l-.04-.1c1.13,1.94,1.17,3.88-.02,5.81Z"/>
  <path class="cls-1" d="m324.76,138.81c.13,15.56-12.4,28.21-28.05,28.33-15.73.11-28.46-12.21-28.66-27.73-.21-16.41,12.17-29.17,28.37-29.25,15.72-.07,28.2,12.54,28.34,28.65Z"/>
  <polygon class="cls-1" points="0 378.99 0 448.78 31.32 448.78 31.32 421.21 98.04 421.21 98.04 448.78 129.36 448.78 129.36 378.99 97.7 378.99 97.7 403.16 30.98 403.16 30.98 378.99 0 378.99"/>
  <path class="cls-1" d="m528,378.99h-101.1v68.09l-50.22-68.3h-52.25l-50.38,68.73v-13.96h-97.88v-11.83h98.05v-15.66h-97.96v-11.75h98.04v-15.53l-128.25.21v69.79h162.04l7.83-10.89h68.42l8.85,10.89h140.6s30.98,5.11,30.98-34.89-36.77-34.9-36.77-34.9Zm-201.02,42.9l18.38-25.36h10.05l18.55,25.36h-46.98Zm201.87,6.3h-70.63v-27.58h70.46s7.49-1.36,7.49,13.79-7.32,13.79-7.32,13.79Z"/>
</svg>