<?xml version="1.0" encoding="UTF-8"?>
<svg id="Layer_1" data-name="Layer 1" xmlns="http://www.w3.org/2000/svg" viewBox="0 0 618.08 614.61">
  <defs>
    <style>
      .cls-1 {
        stroke-width: 0px;
      }
    </style>
  </defs>
  <path class="cls-1" d="m306.66,614.61c-1.07-1.2-2.67-1.37-4.03-1.99-18.67-8.49-34.94-20.58-50.36-33.88-25.42-21.94-47.51-47.01-68.05-73.48-30.13-38.84-56.3-80.27-80.46-123.02-21.66-38.34-41.54-77.57-58.65-118.17-14.53-34.46-26.9-69.65-35.47-106.1C3.87,133.43-.05,108.61,0,83.29c.01-5.12.38-10.23.86-15.33.14-1.51.73-2.47,1.9-3.37,13.41-10.35,28.31-18.05,43.81-24.64,30.13-12.82,61.62-20.92,93.71-26.9,24.17-4.5,48.54-7.48,73.03-9.55,17.6-1.48,35.23-2.43,52.89-3.01.53-.02,1.23.29,1.54-.5h4.1c2.73.84,5.46-.03,8.19,0h55.32c.32.78,1.02.46,1.55.48,28.16.74,56.25,2.56,84.24,5.78,42.71,4.9,84.82,12.78,125.65,26.58,21.06,7.12,41.41,15.81,60.28,27.7,2.31,1.45,4.44,3.2,6.8,4.55,2.18,1.26,2.84,3.08,3.11,5.41,2.04,17.34,1.03,34.59-1.33,51.8-5.73,41.76-18.3,81.65-34,120.56-30.32,75.12-69.38,145.59-114.64,212.67-19.16,28.39-39.97,55.53-62.96,80.94-21.07,23.28-43.61,44.95-69.58,62.8-7.74,5.32-15.78,10.15-24.26,14.22-.55.26-1.41.2-1.49,1.11h-2.05Zm-6.41-599.87c-24.31.15-51.09.86-77.82,2.91-14.62,1.12-29.2,2.54-43.74,4.39-11.72,1.49-23.39,3.38-35.03,5.48-23.2,4.19-46.08,9.62-68.4,17.26-20.07,6.87-39.5,15.12-57.21,27.03-1.58,1.06-2.29,2.16-2.36,4.1-.48,13.43.4,26.78,2.15,40.07,2.51,19.07,6.55,37.83,11.59,56.39,9.9,36.43,23.25,71.61,38.76,105.98,28.59,63.35,62.28,123.87,101.61,181.2,26.23,38.23,55.08,74.28,89.85,105.24,14.06,12.52,29,23.82,45.73,32.61,1.34.71,2.33.84,3.73.04,4.59-2.63,9.16-5.3,13.57-8.22,19.88-13.16,37.53-28.97,54.18-45.92,29.22-29.74,54.58-62.61,78.01-97,19.66-28.85,37.71-58.69,54.67-89.19,26.14-47.02,49.57-95.28,67.5-146.08,7.82-22.17,14.43-44.67,19.11-67.74,2.91-14.37,5.07-28.83,5.94-43.46.45-7.66.42-15.35-.1-23.03-.1-1.4-.67-2.27-1.88-3.05-7.89-5.1-16.13-9.56-24.64-13.53-26.92-12.56-55.17-21.03-84.09-27.41-21.59-4.76-43.39-8.3-65.34-10.98-17.94-2.19-35.93-3.84-53.97-4.97-23.09-1.45-46.21-2.04-71.83-2.11Z"/>
  <path class="cls-1" d="m584.77,93.2c-.54,20.21-3.9,40.01-8.62,59.6-10.02,41.61-25.42,81.28-43.3,120.04-18.63,40.39-39.88,79.39-62.91,117.43-18.48,30.53-38.28,60.16-60.18,88.36-23.72,30.53-49.33,59.27-79.65,83.51-6.54,5.22-13.39,10.01-20.38,14.6-1.95,1.28-3.31,1.17-5.22-.02-17.08-10.56-32.2-23.55-46.51-37.53-27.2-26.57-50.63-56.28-72.25-87.47-27.11-39.1-51.07-80.08-73.15-122.2-17.76-33.87-33.85-68.49-47.41-104.26-10.83-28.56-19.96-57.64-25.99-87.62-3.47-17.23-5.82-34.6-6.04-52.21-.02-1.85.54-2.85,2.18-3.81,21.58-12.66,44.94-20.81,68.93-27.38,20.4-5.59,41.12-9.64,62.04-12.79,17.53-2.64,35.13-4.65,52.79-6,32.42-2.48,64.91-3.5,97.43-3.02,18.43.27,36.85.75,55.24,1.96,17.94,1.18,35.84,2.76,53.69,4.97,24.8,3.06,49.39,7.25,73.65,13.22,24.2,5.96,47.91,13.36,70.42,24.24,4.37,2.11,8.59,4.55,12.94,6.72,1.74.87,2.55,1.99,2.34,4.01-.19,1.86-.04,3.75-.04,5.63Zm-285.82-51.17c-27.92.09-55.79,1.11-83.62,3.52-32.25,2.8-64.24,7.31-95.74,14.88-25.44,6.11-50.24,14-73.53,26.19-2.48,1.3-3.25,2.72-3.09,5.53,1.36,24.49,6.21,48.35,12.52,71.96,9.63,36.02,22.91,70.72,38.27,104.63,27.96,61.76,60.94,120.73,99.31,176.64,18.32,26.69,38.16,52.2,60.54,75.66,15.34,16.08,31.59,31.13,50,43.72,2.6,1.78,4.29,1.78,6.87-.03,19.81-13.87,37.39-30.25,53.9-47.8,27.49-29.23,51.62-61.12,73.71-94.54,35.58-53.83,66.9-110.04,92.89-169.13,15.23-34.63,28.23-70.05,36.65-107.03,3.98-17.49,6.89-35.14,7.53-53.12.07-1.85-.45-2.83-2.16-3.73-15.02-7.86-30.74-13.98-46.87-19.07-37.65-11.88-76.34-18.6-115.5-22.85-37.12-4.03-74.36-5.55-111.69-5.42Z"/>
  <path class="cls-1" d="m481.98,321.42c-1.28-2.97-2.56-5.92-4.35-8.61-2.3-3.46-4.87-6.61-9-8-.72-.24-1.54-.68-2.2-.17-.81.62-.03,1.43.12,2.09,2.85,12.51,1.32,24.56-3.62,36.28-.13.31-.32.6-.5.88-.04.06-.14.08-.43.22-.73-2.05-1.4-4.1-2.19-6.1-1.6-4.08-3.66-7.9-6.86-10.98-1.69-1.63-3.68-2.77-5.97-3.32-1.56-.37-2.47-.22-1.78,1.85,2.38,7.14,3.05,14.52,2.36,21.99-.61,6.68-2.55,12.99-5.86,19.49-.77-1.94-1.31-3.39-1.92-4.82-2.19-5.14-4.77-10.02-9.13-13.71-1.59-1.34-3.36-2.34-5.38-2.86-2.66-.68-2.85-.52-2.42,2.14,1.31,8.14.94,16.16-1.54,24.05-1.04,3.31-2.1,6.61-4.18,10.25-.74-4.47-2.11-7.92-5.2-10.48-6.49-5.36-15.72-4.36-20.91,2.29-3.13,4-4.57,8.74-5.91,13.51-4.17,14.76-9.37,29.05-18.28,41.73-8.87,12.62-20.59,21.49-35.11,26.59-2.35.83-3.04,1.94-3.02,4.35.11,14.51.08,29.02.03,43.53-.02,7.6-5.51,13.51-12.82,14.06-1.88.14-2.66-.21-2.64-2.42.1-19.46.07-38.92.07-58.39,0-88.01,0-176.01.03-264.02,0-9.56.12-19.11,3-28.38,3.57-11.46,10.09-20.6,20.73-26.52.82-.45,1.68-.84,2.54-1.21.54-.24,1.16-.53,1.63.08.38.5.03.98-.26,1.39-8.68,12.26-10.24,26.39-10.27,40.76-.13,52.92-.07,105.85-.08,158.77,0,2.77.03,2.78,2.4,1.38,8.7-5.1,14.42-12.89,19.26-21.45,5.34-9.45,9.24-19.6,14.23-29.21,5.77-11.11,12.25-21.78,22.2-29.71,29.81-23.76,76.21-14.83,92.18,21.73,5.54,12.68,6.06,25.78,2.13,39.05-.18.62-.2,1.38-1.1,1.86Z"/>
  <path class="cls-1" d="m211.15,190.49c6.68,9.38,8.03,19.14,6.3,29.58,5.11-1.83,12.09-9.6,19.06-21.09,2.89,5.29,3.59,18.75-6.69,31.42,11.43-5.25,22.49-8.05,34.24-3.31-.37,1.19-1.39,1.05-2.1,1.31-12.62,4.66-23.8,11.5-32.57,21.83-16.94,19.94-16.57,45.53,1.16,65.08,13.7,15.11,31.45,22.37,51.22,25.43,2.26.35,1.81-1.1,1.81-2.32,0-19.2,0-38.41-.01-57.61-.03-32.18-.07-64.35-.13-96.53-.02-10.59-.28-21.16-3.35-31.44-1.47-4.93-3.47-9.61-6.46-13.83-.46-.66-1.39-1.36-.7-2.23.74-.92,1.58-.03,2.27.31,12.42,6.08,19.53,16.39,23.1,29.41,1.82,6.63,2.26,13.42,2.26,20.28-.03,81.85-.02,163.7-.02,245.55,0,27.48.03,54.96.04,82.45,0,3.07-.17,3.22-3.16,2.84-7.18-.91-12.01-6.79-12.03-14.8-.03-14.59-.04-29.19.04-43.78.01-1.78-.54-2.53-2.2-3.04-26.94-8.19-46.15-25.57-59.42-50.03-7.96-14.68-13.26-30.45-19.09-46.01-3.77-10.07-7.56-20.14-13.63-29.13-12.59-18.63-37.25-23.01-55.58-9.84-1.73,1.24-2.16.97-2.38-1.05-1.74-15.67,5.19-27.25,19.79-32.77,1.45-.55,1.59-1.37,1.63-2.64.22-6.73-.42-13.48.46-20.2,1.42-10.97,5.63-20.4,14.25-27.72,8.45-7.18,17.41-13.75,25.61-21.24,3.6-3.28,7.02-6.73,9.98-10.62,3.08-4.04,5.49-8.39,6.31-14.27Z"/>
  <path class="cls-1" d="m132.8,96.6c-.12,5.75-2.35,10.61-6.42,14.59-1.21,1.19-1.35,1.88-.26,3.29,5.06,6.54,9.95,13.21,14.97,19.79,1.08,1.41,1.09,2.01-.8,2.45-3.98.94-7.94,1.97-11.85,3.15-1.72.52-2.57-.01-3.53-1.4-3.58-5.19-7.28-10.3-10.98-15.42-2.11-2.92-3.64-3.31-7.06-2.41-1.55.41-1.78,1.07-1.49,2.53,1.31,6.52,2.42,13.08,3.77,19.6.39,1.9.07,2.75-1.91,3.23-3.06.75-6.1,1.67-9.03,2.8-2.03.79-2.54.14-2.92-1.76-2.91-14.79-5.9-29.56-8.87-44.33-.97-4.84-1.97-9.68-2.94-14.53-.2-.98-.61-1.94.93-2.4,9.06-2.7,17.89-6.35,27.25-7.86,11.99-1.94,21.36,6.59,21.15,18.69Zm-14.55,1.62c-.03-4.59-3.73-7.51-8.34-6.41-2.81.67-5.55,1.65-8.34,2.41-1.16.31-1.47.89-1.24,2.04.75,3.76,1.46,7.54,2.1,11.32.2,1.17.73,1.38,1.76,1.06,2.93-.91,5.92-1.66,8.8-2.69,3.29-1.17,5.28-4.26,5.26-7.73Z"/>
  <path class="cls-1" d="m380.42,120.82c1.26-18.89,2.56-37.78,3.75-56.68.15-2.32.6-3.22,3.26-2.82,7.41,1.13,14.91,1.69,22.31,2.88,13.75,2.2,21.99,13.32,20.6,27.73-1.22,12.73-2.75,25.43-4.02,38.16-.22,2.17-.93,2.63-2.99,2.16-2.98-.69-6.03-1.19-9.07-1.51-1.76-.18-2.3-.73-2.11-2.52.7-6.53,1.28-13.07,1.88-19.61.56-6.11,1.14-12.23,1.59-18.35.13-1.77-.02-3.58-.26-5.35-.52-3.92-3.16-6.7-7.05-7.43-2.51-.47-5.09-.63-7.59-1.14-1.81-.37-2.48-.07-2.63,1.98-.88,12.16-1.92,24.32-2.9,36.47-.31,3.83-.67,7.65-.92,11.48-.08,1.24-.51,1.59-1.75,1.42-3.63-.48-7.28-.89-10.93-1.23-1.25-.12-1.62-.64-1.47-1.81.16-1.27.23-2.55.34-3.82-.01,0-.02,0-.03,0Z"/>
  <path class="cls-1" d="m325.46,91.84c-.05-4.86-.11-9.73.74-14.54,1.92-10.85,9.34-17.99,20.28-18.71,12.61-.83,23.8,4.72,27.11,19.86.44,2.03.3,2.99-2.22,2.59-3.19-.51-6.44-.71-9.68-.86-1.66-.08-2.53-.58-3.12-2.26-1.6-4.54-6.16-6.98-10.83-6.02-3.51.72-5.97,2.84-6.61,6.33-1.61,8.77-1.92,17.64-.66,26.47.75,5.27,5.06,7.83,10.63,6.92,4.62-.76,8.09-5.45,7.58-10.07-.12-1.11-.69-1.17-1.5-1.22-2.13-.13-4.25-.33-6.38-.41-1.06-.04-1.54-.4-1.48-1.52.18-3.24.33-6.47.41-9.71.03-1.1.57-1.24,1.46-1.18,7.14.55,14.28,1.09,21.42,1.61.89.07,1.15.53,1.08,1.35-.55,6.61-.36,13.31-2.43,19.74-2.77,8.63-10.37,14.49-19.41,14.9-15.31.69-25.22-8-26.36-23.27-.25-3.31-.04-6.65-.04-9.97Z"/>
  <path class="cls-1" d="m486.32,99.72c-.69,7.04-1.71,15.7-4.21,24.05-3.83,12.85-15.7,18.19-29,13.36-9.94-3.61-16.26-12.72-16.22-23.98.03-8.11,1.08-16.16,2.86-24.06,2.84-12.63,11.98-18.72,24.69-16.78,13.06,1.99,22.07,12.61,21.87,27.42Zm-35.05,13.9c.06.98.04,2.44.27,3.86.74,4.47,4.26,7.53,8.86,7.81,3.63.22,6.51-1.97,7.76-6.47,2.15-7.75,3.39-15.67,3.4-23.72,0-5.31-3.42-8.94-8.5-9.5-4.52-.5-7.54,1.89-8.91,7.29-1.69,6.64-2.45,13.42-2.88,20.73Z"/>
  <path class="cls-1" d="m190.63,104.44c1.28,17.1-11.29,29.92-27.98,28.25-8.33-.84-14.12-5.54-16.68-13.46-3.06-9.45-4.67-19.3-4.38-29.2.6-20.58,23.58-28.51,36.17-21.6,6.41,3.52,9.39,9.13,10.62,15.97,1.2,6.63,1.77,13.34,2.25,20.05Zm-14.39,1.82c-.54-6.86-1.06-13.67-2.87-20.27-1.67-6.1-7.11-8.21-12.63-5.05-3,1.72-4.56,4.43-4.57,7.78-.02,8.38,1,16.68,3.4,24.7,1.92,6.41,8.98,7.91,13.84,3.25,3.08-2.95,2.89-6.71,2.83-10.42Z"/>
  <path class="cls-1" d="m267.24,124.91c-7.2-.01-13.26-1.26-18.55-5.28-1.33-1.01-1.52-1.68-.35-2.98,2.17-2.4,4.21-4.93,6.2-7.49.81-1.05,1.42-1.04,2.52-.41,5.4,3.12,11.22,3.32,17.11,1.91,3.73-.89,5.43-3.48,5.08-6.91-.35-3.37-1.94-5.05-5.35-5.44-3.81-.43-7.67-.57-11.45-1.18-7.05-1.15-12.22-4.72-13.92-12.07-1.96-8.46-.43-15.96,6.56-21.7,4.47-3.67,9.82-5.05,15.47-5.31,6.96-.32,13.61.7,19.37,5.09,1.25.95,1.64,1.64.3,2.93-2.21,2.12-4.28,4.41-6.32,6.7-.95,1.06-1.63,1.27-2.97.4-4.31-2.79-9.1-2.64-13.83-1.47-3.45.86-5.5,3.92-5.19,6.98.29,2.81,2.43,4.64,6.17,5.08,4.23.5,8.53.46,12.69,1.53,7.31,1.89,11.34,6.46,12.28,13.96,1.72,13.72-5.87,23.44-19.67,25.14-2.29.28-4.57.61-6.15.5Z"/>
  <path class="cls-1" d="m222.58,59.88c5.65-.02,10.46,1.14,14.8,4.04,1.28.85,1.5,1.46.36,2.71-2.18,2.39-4.21,4.93-6.19,7.49-.87,1.12-1.47,1.08-2.7.43-4.88-2.57-9.93-2.13-14.82-.07-3.07,1.29-4.65,4.56-4,7.27.65,2.75,2.76,4.15,6.46,4.28,3.15.11,6.32.08,9.46.32,10.93.84,16.05,6.21,16.59,17.19.39,7.89-2.39,14.4-9.18,18.5-10.15,6.14-20.98,7.25-32.07,2.62-4.65-1.94-4.56-2.17-1.58-6.26,1.46-2,2.99-3.94,4.37-5.99.73-1.08,1.3-1.14,2.46-.58,5.8,2.79,11.74,2.51,17.65.4,2.29-.82,3.94-2.39,4.24-4.98.51-4.34-1.26-6.71-5.64-7.12-3.13-.29-6.31-.14-9.46-.23-11.8-.34-17.81-6.78-17.4-19.21.36-10.69,8.63-18.65,20.26-20.25,2.28-.31,4.56-.7,6.38-.57Z"/>
  <path class="cls-1" d="m492.35,122.71c.34-7,2.23-14.91,3.49-22.9.97-6.14,2.18-12.25,3.16-18.39.26-1.67.7-2.14,2.42-1.58,3.49,1.13,7.03,2.14,10.59,2.99,1.69.4,1.9,1.13,1.6,2.68-2.16,11.4-4.28,22.81-6.31,34.23-.43,2.42-.7,4.92-.67,7.37.07,5.21,2.46,8.18,7.42,9.76,4.71,1.5,9.4,3.06,14.13,4.5,1.47.45,2.14,1.02,1.72,2.69-.76,3.06-1.42,6.15-1.96,9.25-.25,1.41-.81,1.67-2.06,1.25-5.75-1.9-11.57-3.6-17.24-5.69-10.34-3.81-16.55-13.53-16.28-26.17Z"/>
  <path class="cls-1" d="m316.29,90.42c0,10.06-.05,20.12.04,30.19.02,1.94-.55,2.49-2.46,2.39-3.06-.16-6.15-.18-9.2.02-2.14.14-2.51-.67-2.51-2.6-.03-18.76-.15-37.52-.21-56.28,0-2.12-.94-4.89.33-6.19,1.38-1.41,4.19-.38,6.38-.47,1.87-.08,3.76.1,5.62-.04,1.99-.16,2.59.49,2.57,2.55-.11,10.15-.05,20.29-.05,30.44-.17,0-.34,0-.5,0Z"/>
</svg>