<?xml version="1.0" encoding="UTF-8"?>
<svg id="Layer_1" data-name="Layer 1" xmlns="http://www.w3.org/2000/svg" viewBox="0 0 660.2 425.68">
  <defs>
    <style>
      .cls-1 {
        stroke-width: 0px;
      }
    </style>
  </defs>
  <path class="cls-1" d="m387.62,373.92c-.03-.55-.07-1.09-.1-1.64-.66-1.27-1.29-2.56-1.81-3.9-.4-1.02-.76-2.47-2.11-2.3-1.46.18-1.17,1.69-1.28,2.77-.37,3.48-.06,6.96-.02,10.45.14,12.44.08,24.88.04,37.32-.01,4.17-.94,5.05-5.11,5.12-6.98.13-13.96-.38-20.94.26-2.94.27-4.4-1.36-4.46-4.55-.16-7.6.24-15.2.29-22.8.09-14.5,0-28.99.03-43.49.01-6.27-.5-12.52-.35-18.79.11-4.4.64-5.02,4.96-5,9.97.04,19.94-.05,29.91-.03,1.86,0,3.69-.25,5.53-.34,1.88-.09,3.07.64,3.78,2.45,3.8,9.71,7.43,19.48,11.25,29.17,3.15,8,6.79,15.81,9.38,24.03.31.98.79,1.92,1.92,2.24.67.5,1.36.74,2.15.25,2.58-2.13,2.47-5.5,3.66-8.25,4.6-10.6,8.25-21.59,12.71-32.26,2-4.81,3.88-9.69,5.71-14.57.69-1.84,1.76-2.66,3.61-2.67,12.52-.06,25.05-.07,37.57.01,1.12,0,2.3.08,2.95,1.27.57,1.28.4,2.63.4,3.96,0,27.94,0,55.88,0,83.83,0,1.03.08,2.06-.13,3.07-.34,1.61-1.27,2.48-3,2.49-7.49.03-14.98.09-22.47.02-4.09-.04-4.94-.98-4.94-5.2,0-15.61-.02-31.23,0-46.84.01-.51.07-1.01.16-1.52.18-1.02-.1-1.93-1.14-2.22-1.03-.29-1.4.65-1.77,1.36-1.9,3.64-3.7,7.33-5.08,11.2-2.49,6.95-5.59,13.64-8.32,20.49-2.51,6.28-5.25,12.47-7.6,18.81-1.05,2.83-2.77,3.66-5.59,3.58-5.14-.15-10.28-.13-15.42,0-2.86.07-4.62-1.04-5.72-3.67-3.23-7.77-6.56-15.5-9.73-23.29-2.86-7-6-13.86-8.92-20.83Z"/>
  <path class="cls-1" d="m418.53,384.9c-.11.49-.07,1.27-.36,1.41-.56.28-.82-.38-1.01-.83-1.02-2.44-2.24-4.82-2.98-7.34-1.86-6.39-5.08-12.23-7.33-18.44-1.84-5.06-4.17-9.92-5.77-15.09-1.67-5.41-4.1-10.58-6.21-15.85-.48-1.2-1.58-1.23-2.62-1.13-12.4,1.25-24.84.31-37.26.57-2.1.04-2.6,1.06-2.59,2.91.04,5.54.38,11.06.52,16.59.31,12.54-.07,25.09.15,37.64.18,10.28-.94,20.51-.67,30.78.12,4.74,1,5.2,5.7,4.89,6.19-.42,12.43-.16,18.65-.18q4.69-.02,4.69-4.78c0-15.32,0-30.65,0-45.97,0-.72-.07-1.45.02-2.16.17-1.34.4-2.87,1.99-3.1,1.46-.21,2.17,1.13,2.53,2.29.52,1.72,2.15,3.12,1.54,5.17-2.32-.31-2.24-2.15-2.43-3.82-.37-.79-.37-2.19-1.48-2-1.18.21-.51,1.54-.63,2.38-.13.9.13,1.84-.21,2.72.6,16.24.14,32.48.3,48.73.02,1.79-.72,2.32-2.38,2.31-9.05-.04-18.1-.09-27.15.02-2.77.03-2.54-1.62-2.53-3.44.02-25.4.02-50.8.02-76.2,0-4.32.01-8.64.02-12.96q0-3.9,3.91-3.8c.61.02,1.22.14,1.82.22,6.77.45,13.54.44,20.3,0,5.6-.61,11.21.12,16.81-.24,1.42-.09,2.01.68,2.42,1.85,2.58,7.26,5.67,14.33,8.3,21.58,1.86,5.13,4.12,10.13,6,15.27,2.22,6.09,5.38,11.82,7.02,18.14.16.63,1.07.99.9,1.85Z"/>
  <path class="cls-1" d="m502.75,374.22c0-15.22.04-30.44-.05-45.66-.01-2.01.7-2.41,2.5-2.4,9.15.06,18.3.07,27.46-.02,2.06-.02,2.92.51,2.92,2.74-.06,30.44-.05,60.88,0,91.32,0,1.97-.79,2.43-2.57,2.42-9.25-.05-18.51-.06-27.76.03-2.14.02-2.49-.85-2.48-2.77.07-15.22.04-30.44.04-45.66h-.04Z"/>
  <path class="cls-1" d="m320.33,415.9c-4.91,3.9-10.74,5.9-16.68,7.23-9.94,2.23-20.03,3.17-30.24,2.13-10.06-1.02-19.88-2.82-28.72-8.11-12.45-7.45-19.13-18.57-21.19-32.82-1.56-10.8-.76-21.28,3.1-31.47,4.7-12.44,13.92-20.2,26.16-24.67,4.41-1.61,8.87-3.11,13.67-3.1,10.04-1.32,20.08-1.19,30.13,0,.74-.23,1.46-.2,2.18.07.54.42,1.19.82.38,1.57-3.38,1.23-6.74,0-10.05-.31-6.08-.55-12.09-.52-18.12.26-6.95.9-13.83,2.13-20.27,5.01-11.7,5.22-20.35,13.68-23.34,26.2-1.72,7.18-3.77,14.82-1.39,22.47.18.59.16,1.22.17,1.84.05,9.73,4.21,17.81,10.17,25.12,4.5,5.52,10.69,8.53,17.19,10.96,6.57,2.45,13.47,3.27,20.34,4.45,5.75.99,11.14.09,16.71-.22,7.45-.42,14.62-1.75,21.47-4.73,2.36-1.02,4.76-1.94,6.75-3.65.86-.74,1.78-1.44,3.05-1.09,1.36,1.89-.83,1.96-1.45,2.84Z"/>
  <path class="cls-1" d="m650.56,409.09c-.83.83-1.65,1.66-2.48,2.5-1.13,1.15-2.47,2.05-3.69,3.09-5.71,4.71-12.38,7.28-19.54,8.81-11.68,2.5-23.42,2.84-35.19,1-14.87-2.33-28.08-7.81-36.53-21.16-5.47-8.65-7.19-18.35-7.17-28.49.02-11.22,2.16-21.77,8.85-31.08,6.2-8.63,14.82-13.65,24.76-16.72.97-.3,1.98-.46,2.96-.69,1.33-.26,2.68-.72,3.92.27-.66,1.73-2.36,1.83-3.77,2.22-6.06,1.66-11.85,3.68-17,7.58-6.61,4.99-11.16,11.11-14.01,18.94-2.57,7.03-3.24,14.21-3.28,21.47-.07,10.89,3.17,20.94,10,29.47,5.26,6.57,12.39,10.58,20.42,13.15,5.14,1.64,10.38,2.39,15.68,3.03,3.14.38,6.15,1.35,9.41,1.31,8.17-.11,16.04-2.01,23.95-3.66,7.68-1.61,13.98-5.67,19.51-11.1.86-.84,1.74-1.85,3.2-1.28.38.45.33.91,0,1.36Z"/>
  <path class="cls-1" d="m184.12,354.29c-.07,1.23-.21,2.45-.21,3.68-.02,20.47-.06,40.94.03,61.41.01,2.53-.66,3.35-3.27,3.31-9.25-.16-18.51-.16-27.77-.05-2.37.03-2.93-.77-2.92-3.02.08-20.47-.01-40.94.12-61.41.02-3.09-.78-4.1-3.94-4.03-9.05.21-18.1,0-27.15.19-2.74.05-3.53-.79-3.47-3.49.17-7.2.14-14.4.01-21.6-.04-2.43.75-3.15,3.19-3.14,32.09.07,64.18.07,96.28-.04,2.79,0,3.47.85,3.41,3.51-.17,7.4-.1,14.81-.04,22.22.02,1.8-.41,2.52-2.41,2.5-10.49-.12-20.98-.09-31.46-.11.45-2.12,2.23-1.47,3.48-1.48,8.12-.09,16.24-.04,24.37-.05,4.3,0,4.6-.3,4.61-4.51,0-5.35,0-10.69,0-16.04,0-1.34.07-2.7-1.15-3.66-1.22-.78-2.59-.58-3.91-.58-29.94-.01-59.87-.01-89.81,0-4.34,0-4.6.26-4.62,4.48-.02,5.45-.02,10.9.01,16.36,0,1.2-.24,2.53,1.1,3.3,1.21.77,2.56.65,3.89.65,7.91,0,15.81-.02,23.72.01,4.65.02,5.82,1.17,5.83,5.86.05,19.2.01,38.4.02,57.6,0,1.03-.03,2.05.12,3.07.34,1.69,1.61,1.95,3.03,1.95,8,.03,16.01,0,24.01.02,2.7,0,3.2-1.55,3.2-3.79-.02-10.06-.01-20.11,0-30.17,0-9.85-.05-19.7.06-29.55.01-1.23-.83-3.22,1.65-3.4Z"/>
  <path class="cls-1" d="m387.62,373.92c1.96,1.39,2.48,3.73,3.35,5.7,4.82,10.99,10.11,21.84,13.83,33.21,2.4,7.34,6.43,8.89,13.08,8.08,3.24-.39,6.58-.19,9.87-.02,2.35.12,3.42-.54,4.45-2.92,3.15-7.26,6.02-14.64,9.06-21.94,2.82-6.76,5.82-13.48,8.15-20.46,1.02-3.03,2.23-6.15,4.38-8.69.75-.88,1.5-1.74,2.83-.84,1.16.79,1.93,1.61.76,2.97-.65.45-.35,1.12-.34,1.68.1,16.68-.25,33.37.17,50.05.01.55-.14,1-.52,1.38-1.19-.84-.62-2.08-.62-3.12-.02-16.55,0-33.11-.01-49.66,0-.81.65-2.14-.63-2.34-.96-.16-.89,1.14-1.2,1.86-7.13,17.18-14.33,34.33-21.35,51.56-.76,1.86-1.76,2.23-3.44,2.22-6.68-.04-13.37-.02-20.05-.03-1.23,0-2.29.07-2.93-1.52-6.25-15.35-12.61-30.66-18.91-45.99-.14-.33.03-.78.06-1.18Z"/>
  <path class="cls-1" d="m456.7,422.12c.02-17.01.04-34.02.07-51.03,0-.82,0-1.64,0-2.46,0-.07.11-.14.17-.21.15.19.3.39.45.58,0,16.13.06,32.26-.09,48.39-.03,2.95,1.42,3.98,3.8,3.96,6.87-.07,13.75.58,20.59-.37,1.4-.19,2.94,1.28,4.08-.12,1.26-1.56.58-3.57.58-5.37.03-29.08,0-58.16,0-87.23-.48-.63-.49-1.25.01-1.87,1.55-.51,1.76.44,1.76,1.61,0,1.75,0,3.49,0,5.24,0,28.57-.04,57.13.04,85.7,0,2.75-.61,3.76-3.56,3.68-8.42-.21-16.85-.07-25.28-.11-.88,0-1.86.36-2.63-.41Z"/>
  <path class="cls-1" d="m650.56,409.09c-.01-.43-.02-.86-.03-1.29-.78-1.37.05-2.42.83-3.32,3-3.45,3.74-7.96,5.72-11.88.63-1.26.03-1.95-1.2-2.22-.91-.2-1.84-.16-2.76-.16-7.19,0-14.39.09-21.58-.05-2.76-.05-4.76.79-6.19,3.15-.75,1.23-1.82,2.21-2.81,3.26-3.33,3.5-7.31,5.6-12.19,5.82-6.57.29-12.97.59-19.11-3.04-5.71-3.38-9-8.25-10.31-14.28-1.36-6.31-1.47-12.83-.47-19.31,1.08-7.03,4.55-12.39,10.6-16.15,2.12-1.32,4.53-1.21,6.8-1.77,1.63.07,3.38-.57,4.75.88-2.39.53-4.84.88-7.17,1.61-6.44,2.03-10.28,6.8-11.95,13.02-2.08,7.74-2.02,15.6.45,23.37,2.88,9.06,9.59,12.82,18.47,13.7,3.83.38,7.63-.05,11.29-1.08,4.76-1.33,8.25-4.36,10.55-8.8.74-1.43,1.23-3.01,3.67-2.96,9.87.2,19.74.15,29.61.04,2.15-.02,2.77.79,2.47,2.7-1.13,7.26-4.18,13.57-9.43,18.76Z"/>
  <path class="cls-1" d="m393.85,226.95c10.41,16.14,20.82,32.27,31.23,48.41.22.34.47.68.65,1.05.34.72,1.02,1.55.43,2.27-.89,1.11-1.67-.08-2.38-.45-19.52-10.25-39.03-20.54-58.52-30.83-1.69-.89-3.65-1.38-4.93-2.97.09-.13.17-.26.26-.39.39-.27.83-.4,1.29-.45,3.02.1,5.31,2.03,7.85,3.26,8.38,4.06,16.17,9.29,24.8,12.89,3.73,1.55,6.97,3.94,10.5,5.81,4.06,2.15,8.57,3.5,12.06,6.71.78.72,1.92,1.05,3.59.9-3.23-3.22-4.21-7.4-6.72-10.83-3.2-4.38-6.39-8.83-9.1-13.62-2.77-4.87-6.32-9.31-9.18-14.15-1.92-3.25-4.13-6.36-5.5-9.93-.04-.49.05-.94.33-1.35.27-.24.56-.26.87-.07h0c.83,1.25,1.86,2.35,2.46,3.73Z"/>
  <path class="cls-1" d="m269.26,254.25c-4.09,3.08-8.81,5.05-13.28,7.47-10.05,5.44-20.17,10.75-30.26,16.1-.27.14-.56.25-.86.34-1,.29-2.04,1.63-3.02.39-.8-1.03.42-1.87.94-2.67,13.33-20.7,26.68-41.37,40.03-62.06.62.39.75,1.01.8,1.67-.4,3.61-3.23,5.91-5.03,8.68-4.36,6.72-8.36,13.64-12.65,20.4-2.19,3.45-4.52,6.84-6.97,10.14-2.55,3.44-4.04,7.58-6.66,11.04-1.29,1.72-2.77,3.31-3.83,5.2-.38.68-1.25,1.43-.52,2.18.68.7,1.54.02,2.24-.36,5.5-2.97,10.85-6.22,16.43-9.03,6.4-3.23,12.67-6.73,19.16-9.8.56-.27,1.15-.45,1.78-.46.67.03,1.29.17,1.69.78Z"/>
  <path class="cls-1" d="m320.33,415.9c.62-.82,1.24-1.64,1.85-2.46-.31-1.41.89-1.98,1.62-2.74,1.7-1.78,3.35-3.59,4.95-5.48,6.72-7.95,8.7-17.43,9.27-27.43.42-7.47-.18-14.92-2.67-21.91-2.56-7.19-6.4-13.84-13.05-18.21-2.15-1.41-4-3.2-6.24-4.5-4.52-2.64-9.76-3.14-14.48-5.15-.85-.36-2.2-.09-2.25-1.6-.21-.42-.41-.83-.62-1.25,14.61,2.5,27.16,8.46,35.04,21.7,6.38,10.72,7.73,22.54,6.54,34.73-.81,8.35-3.01,16.31-7.98,23.24-3.22,4.5-6.75,8.73-11.99,11.08Z"/>
  <path class="cls-1" d="m486.36,326.4c0,.62,0,1.24-.01,1.87-13.26-.01-26.51,0-39.77-.07-1.8,0-2.22.67-3.04,2.35-2.78,5.65-4.63,11.66-7.12,17.4-2.32,5.33-4.24,10.91-6.28,16.4-1.94,5.23-3.61,10.59-6.22,15.55-.58,1.1-.26,2.23-.56,3.28-.35,1.22-.5,3.09-2.68,1.97.85-4.87,3.23-9.19,4.96-13.74,5.46-14.33,11.11-28.58,16.65-42.88.52-1.34,1.04-2.37,2.75-2.36,13.77.1,27.55.16,41.32.23Z"/>
  <path class="cls-1" d="m320.25,15.08c.89-4.61,1.77-9.22,2.67-13.82.12-.64.45-1.19,1.16-1.25.81-.07.98.56,1.08,1.19.91,5.8,2.66,11.42,3.35,17.28.36,3.08,1.54,6.04,2.03,9.17.79,4.98,2.17,9.86,3.27,14.79.31,1.39.51,2.8.77,4.2.84,6.19,2.29,12.25,3.67,18.33.33,1.45.71,2.95.2,4.46-1.48.59-1.47-.75-1.67-1.46-1.99-7.23-3.2-14.64-4.96-21.93-1.71-7.07-2.82-14.25-4.37-21.36-1.15-5.29-2.84-10.51-3.24-16.02-.75,1.04-.94,2.25-1.07,3.44-.83,7.46-3.32,14.59-4.35,22-.79,5.68-2.39,11.19-3.37,16.83-.83,4.83-2.51,9.5-3,14.42-.11,1.09-.37,2.54-2.16,2.31-.88-1.49-.3-3.09.02-4.49,1.37-6.02,2.38-12.12,3.73-18.12,1.06-4.71,2.12-9.45,3.11-14.17,1.1-5.25,2.43-10.47,3.12-15.81Z"/>
  <path class="cls-1" d="m320.25,15.08c.59,3.75-1.18,7.15-1.62,10.77-.42,3.46-1.57,6.82-2.06,10.32-.39,2.75-1.2,5.46-2.05,8.11-.71,2.21-.71,4.56-1.19,6.8-.63,2.9-1.71,5.82-1.71,8.93,0,2.58-1.7,4.99-1.18,7.71.78,2.76.2,5.54-.43,8.15-1.25,5.21-1.35,10.7-3.73,15.64-1.74,2.41-1.57,5.41-2.26,8.11-1.32,5.2-2.25,10.52-3.29,15.8-.06.33-.16.65-.26.97-1.51,7.94-3.38,15.8-4.94,23.72-.63,3.18-1.75,6.33-1.68,9.65-.06.32-.17.63-.3.93-1.43,3.5-1.63,7.3-2.6,10.92-.08.3-.19.59-.31.88-.65,3.01-1.47,5.97-2.39,8.9-.31.71-.56,1.44-.83,2.17-.55,1.11-.72,2.33-1.12,3.48-.41,1.17-.73,2.64-2.55,2.41.88-4.52,2.98-8.66,4.16-13.11,1.78-6.72,3.17-13.51,4.64-20.29,1.95-8.98,3.87-17.96,5.76-26.95,1.43-6.8,2.77-13.61,4.19-20.41,1.49-7.09,3.05-14.17,4.53-21.26,1.44-6.9,2.79-13.83,4.25-20.73,1.5-7.1,3.23-14.15,4.61-21.27,1.32-6.81,2.45-13.66,4.36-20.34Z"/>
  <path class="cls-1" d="m269.26,254.25c-.68-.03-1.36-.06-2.04-.09.78-2.11,2.78-2.82,4.48-3.83,7.85-4.65,16.04-8.72,24.15-12.87,8.22-4.21,16.21-8.86,24.56-12.8,2.32-1.1,4.52-1.05,6.83-.08,4.18,1.76,8.02,4.17,12.07,6.17,3.04,1.5,6.03,3.09,9.14,4.45,1.53.67,3.68,1.17,3.29,3.71-1.26.65-2.12-.42-3.16-.73-4.26-1.72-8.35-3.77-12.31-6.09-3.4-2.17-7.17-3.65-10.62-5.71-1.33-.79-2.46-.58-3.7.24-2.45,1.63-5.27,2.56-7.76,4.11-14.67,7.8-29.34,15.61-44.01,23.4-.25.13-.6.08-.9.12Z"/>
  <path class="cls-1" d="m338.22,69.6c.06-4-1.44-7.72-2.03-11.6-.58-3.78-2.34-7.4-1.61-11.37,1.92,6.15,2.73,12.56,4.19,18.82,1.7,7.27,3.16,14.59,4.65,21.9,1.02,5.01,1.86,10.05,2.91,15.05,1.38,6.61,2.9,13.19,4.3,19.79,1.5,7,2.92,14.02,4.4,21.02,1.02,4.81,2.03,9.62,3.15,14.4.36,1.52.69,3,.53,4.56-1.64.19-1.32-1.18-1.61-2.04-.82-2.41-.9-5.01-1.96-7.36-.13-.3-.23-.62-.3-.94-.53-5.37-1.83-10.58-3.37-15.74-1.79-3.41-2.07-7.22-2.96-10.87-1.43-5.85-2.9-11.74-3.93-17.61-1.09-6.18-3.29-12.25-3.04-18.66.03-.81-.28-1.61-.38-2.42-.5-3.32-1.24-6.58-2.05-9.83-.19-.44-.31-.9-.37-1.37-.03-1.66-.14-3.32-.78-4.89-.04-.32.05-.6.25-.85Z"/>
  <path class="cls-1" d="m131.57,415.86c1.21,1.98,3.58,4.65,2.83,6.04-1.02,1.91-4.31.66-6.6.69-8.74.1-17.49-.07-26.23.09-2.36.04-3.5-.83-4.36-2.84-1.4-3.29-3.13-6.45-4.44-9.77-.59-1.48-1.43-1.79-2.77-1.79-15.12.01-30.24.06-45.37-.05-1.88-.01-2.36,1.21-3.26,2.22-.65-.58-.72-1.3-.54-2.09.69-1.76,2.24-1.98,3.81-1.99,15.09-.07,30.18-.08,45.27,0,3.05.02,4.98,1.62,5.93,4.47.23.68.44,1.37.74,2.02,2.14,4.75,4.65,8,11.05,7.36,4.97-.5,10.21.27,15.34.3.62,0,1.23,0,1.85-.01,4.81-.12,5.06-.37,5.01-4.82.69-1.13,1.19-.21,1.73.17Z"/>
  <path class="cls-1" d="m33.24,355.87c4.28-9.82,9.56-19.15,14.15-28.82.54-1.13,1.52-1.18,2.6-1.18,11.4,0,22.79,0,34.19-.02,1.37,0,2.55.06,3.29,1.62,3.07,6.45,6.26,12.84,9.41,19.25.38.62.44,1.26.08,1.92-2.78-.63-3.84-2.94-4.6-5.22-1.53-4.63-3.99-8.78-6.29-13.02-1.01-1.87-2.42-2.57-4.48-2.56-9.56.04-19.11.04-28.67,0-2.09,0-3.41.8-4.44,2.64-5.16,9.22-9.36,18.93-14.28,28.27-.65,1.23-.85,2.85-2.72,2.95-.98-2.41,1.45-3.8,1.75-5.82Z"/>
  <path class="cls-1" d="m586.37,326.98c-1.13-1.09-2.56-.36-3.83-.64,11.99-3.22,24.13-3.16,36.34-1.71,9.9,1.18,19.2,4.01,27.23,10.2,5.91,4.56,10.23,10.28,12.54,17.44-.2.52-.52.86-1.13.77-1.1-.53-1.64-1.56-2.12-2.56-7.3-15.26-20.6-20.93-36.3-23.36-9.78-1.52-19.4-1.13-29.1.04-1.19.14-2.45.43-3.63-.2Z"/>
  <path class="cls-1" d="m216.62,327.64c1.32.57,1.24,1.74,1.23,2.88,0,6.67-.06,13.35.03,20.02.03,2.28-.83,3.06-3.08,3.04-9.03-.08-18.07-.05-27.11-.01-1.07,0-2.29-.43-3.17.64,0,0-.19.13-.19.13,0,0-.22-.05-.22-.05-1.47.81-.8,2.21-.8,3.32-.04,19.93-.03,39.85-.03,59.78,0,4.38-.3,4.67-4.78,4.67-7.81,0-15.61-.01-23.42.01-1.87,0-3.56-.12-3.87-2.48.32-.24.68-.35,1.08-.35,2.21.51,4.45.64,6.72.65,6.37.01,12.73-.2,19.09.13,2.39.12,3.41-.94,3.54-3.18.05-.82.06-1.64.06-2.46,0-16.12-.02-32.24.02-48.36,0-2.69-.66-5.3-.62-7.98.07-4.88,1.15-6.03,5.96-6.05,8.32-.04,16.63.02,24.95-.03,3.89-.02,4.37-.38,4.21-4.22-.26-6.35-.24-12.7-.09-19.05.06-.39.22-.74.47-1.04Z"/>
  <path class="cls-1" d="m657.93,352.97c.24-.23.47-.46.71-.69.14.27.31.53.41.82,2.13,5.97,1.67,6.61-4.62,6.61-8.85,0-17.69-.01-26.54.02-1.73,0-3.05-.18-4.06-1.99-3.06-5.51-8.31-7.6-14.22-8.38-2.32-.31-4.67-.44-7.01-.65-1.7-.03-3.39-.06-5.09-.09.28-1.81,1.87-1.75,3.06-1.89,6.46-.79,12.72.09,18.67,2.8,2.13.97,3.54,2.84,4.87,4.64,1.57,2.12,3.52,2.8,6.09,2.87,8,.2,15.98.79,24,.03,2.19-.21,3.64-.37,3.2-3.02-.07-.4.22-.78.52-1.07Z"/>
  <path class="cls-1" d="m96.87,348.63c0-.64.01-1.27.02-1.91,5.68,11.18,11.39,22.35,17.05,33.55,5.75,11.38,11.44,22.78,17.15,34.18.22.44.33.94.49,1.41-.46-.19-.92-.39-1.38-.58-.64.15-.93-.27-1.17-.74-5.27-9.99-10.45-20.01-15.32-30.21-2.06-4.32-4.66-8.45-6.71-12.81-3.07-6.49-6.88-12.59-9.78-19.16-.51-1.16-1.42-2.39-.34-3.74Z"/>
  <path class="cls-1" d="m33.24,355.87c.14,2.14-1.86,3.6-1.8,5.71.23,1.94-.64,3.63-1.48,5.22-2.69,5.08-5.39,10.18-7.76,15.4-3.31,7.28-7.42,14.15-10.49,21.54-1.89,4.56-5.29,8.28-7.26,12.81-.2.46-.7.74-1.22.87-.33.02-.62-.08-.86-.3,4.1-8.3,8.16-16.61,12.3-24.89,5.81-11.64,11.66-23.25,17.52-34.87.27-.53.7-.99,1.05-1.48Z"/>
  <path class="cls-1" d="m2.38,417.12c.21.02.43.04.64.06,1.07,2.16,2.78,2.87,5.2,2.85,7.65-.05,15.29.49,22.94-.01,2.51-.16,4.03-1.16,4.91-3.39.91-2.29,1.93-4.53,3.04-6.72.42-.82.67-2.14,2.16-1.39.03.65.06,1.29.09,1.94-1.53,3.44-3.13,6.85-4.56,10.33-.55,1.35-1.31,1.84-2.74,1.84-10.75-.05-21.49-.05-32.24-.03-1.66,0-2.42-.31-1.31-2.05.7-1.09,1.24-2.28,1.85-3.43Z"/>
  <path class="cls-1" d="m390.8,223.15c-.03.47-.07.93-.1,1.4-1.73.29-2.38-1.09-2.94-2.19-3.14-6.25-7.99-11.38-11.36-17.46-3.97-7.15-8.56-13.93-12.6-21.04-.77-1.35-1.43-2.77-.46-4.32,1.48-.51,1.27.95,1.7,1.56.86,1.24,1.22,2.77,2.26,3.92,3.39,5.45,6.76,10.91,10.18,16.35,2.93,4.66,5.93,9.29,8.89,13.93,1.21,2.77,3.94,4.68,4.42,7.86Z"/>
  <path class="cls-1" d="m283.75,179.44c2.63-1.23,1.31-4.53,3.22-6.14,1.07,3.28-.02,6.22-1.61,8.98-4.63,8.06-9.39,16.05-14.5,23.81-1.79,2.72-3.64,5.38-5.26,8.21-.55.95-1.27,1.92-2.66,1.65-.04-.71-.07-1.41-.11-2.12,6-9.71,12.52-19.09,17.96-29.15.95-1.76,1.31-3.88,2.96-5.24Z"/>
  <path class="cls-1" d="m367.3,185.01c-2.2-1.2-2.02-4.03-3.76-5.54-1.53.21-1.83-1.04-2.31-2-2.4-4.79-3.57-9.98-4.74-15.15-.39-1.7-1.07-3.31-1.38-5.02-.31-1.68-.94-3.41.4-4.97,1.86,2.46,1.56,5.56,2.44,8.31.18.57.12,1.22.76,1.54,1.82,2.89,1.86,6.37,3.09,9.45,1.79,4.48,3.66,8.92,5.49,13.38Z"/>
  <path class="cls-1" d="m314.17,230.74c2.46-2.55,6.14-3.04,8.84-5.22.31-.25,1.07-.28,1.44-.09,4,2.1,8.27,3.72,11.8,6.66-3.43-1.06-6.44-2.98-9.54-4.69-1.91-1.06-3.49-1.03-5.42.06-2.26,1.28-4.42,2.9-7.12,3.27Z"/>
  <path class="cls-1" d="m296.54,325.08c-10.04-.8-20.08-.66-30.13,0,10.04-1.94,20.08-1.99,30.13,0Z"/>
  <path class="cls-1" d="m377.08,326.44c-3.48,1.22-7.08.49-10.62.49-3.22,0-6.52.78-9.69-.5,6.77-.4,13.54-.4,20.3,0Z"/>
  <path class="cls-1" d="m348.56,238.19l3.25.57c.44,0,.83.17,1.21.39,1.7,1.08,3.57,1.86,5.34,2.83.92.51,2.13.84,2.13,2.25,0,0-.15.21-.15.21-4.23-1.51-8.18-3.54-11.77-6.25Z"/>
  <path class="cls-1" d="m390.8,223.15c-1.17-2.79-3.73-4.8-4.42-7.86,2.22,2.3,3.99,4.88,5.01,7.94,0,0-.3.01-.3.01l-.29-.08Z"/>
  <path class="cls-1" d="m382.77,371.57c-.03-1.01-.15-2.02-.08-3.02.07-.9-.58-2.34.89-2.47,1.52-.13,1.58,1.21,1.51,2.38-.44-.51-.89-1.02-1.43-1.65-1.11,1.58-.14,3.34-.9,4.76Z"/>
  <path class="cls-1" d="m393.85,226.95c-1.04-1.09-2.32-2.03-2.46-3.72,1.51.78,2.3,2.04,2.46,3.72Z"/>
  <path class="cls-1" d="m644.39,414.68c.81-1.54,2.16-2.43,3.69-3.09-.71,1.66-1.99,2.62-3.69,3.09Z"/>
  <path class="cls-1" d="m504.28,374.06c0-14.18,0-28.37,0-42.55,0-3.27,1-4.41,4.35-4.45,7.09-.09,14.18-.08,21.27-.02,2.99.02,4,1.32,4,4.89,0,26.83,0,53.65,0,80.48,0,.93-.03,1.85,0,2.78.2,6.19-.54,5.66-5.89,6.11-6,.51-12.1.47-18.15-.1-.59-.06-1.2.03-1.79.15-2.61.53-3.65-.9-3.77-3.18-.13-2.46-.04-4.93-.04-7.4,0-12.23,0-24.46,0-36.69Z"/>
  <path class="cls-1" d="m331.76,346.73c-5.48-8.47-12.97-14.2-22.6-17.18-3.27-1.01-6.53-2.09-9.79-3.13-.01,0-.02,0-.03-.01-3.57-.23-7.19-.17-10.71-.75-9.4-1.53-18.6.05-27.72,1.82-8.31,1.61-15.77,5.33-22.36,10.78-6.4,5.29-10.9,12.24-12.28,19.99-1.3,7.3-2.99,14.74-1.37,22.7,1.3,6.35,2.28,12.47,5.11,18.45,4.2,8.85,10.97,14.56,19.62,18.3,6.74,2.91,13.77,5.26,21.18,5.46,3.58.1,6.81,2.03,10.48,1.34,3.22-.6,6.53-.65,9.75-1.23,3.56-.65,7.53.42,10.64-.88,6.32-2.64,13.56-3.43,18.76-8.58.32-.32,1.02-.27,1.6-.35.06,0,.1-.01.15-.02.33-.38.63-.8,1.01-1.12,3.96-3.26,7.58-7.09,9.85-11.5,2.75-5.32,4.75-11.1,5.32-17.31,1.18-12.92.73-25.43-6.6-36.79Zm-67.44,47.5c-.15-.23-.3-.46-.45-.7-6.31-9.98-6.25-20.78-3-31.64,1.36-4.58,4.07-7.77,7.66-9.85,1.13-.65,2.35-1.2,3.65-1.64.23-.09.46-.16.69-.23,1.43-.44,2.93-.77,4.51-.99.8-.11,1.59-.33,2.38-.49,3.9.07,7.8.41,11.5,1.62,6.2,2.03,10.11,6.43,11.77,12.73,2.06,7.77,2.2,15.53-.07,23.33-2.86,9.78-10.19,13.41-19.07,14.05-7.26.52-14.05-.94-19.56-6.2Z"/>
  <path class="cls-1" d="m657.93,352.97c.46,4.91.41,4.47-4.61,5.02-8.32.9-16.56-.18-24.84-.08-1.84.02-3.27-.52-4.16-2.05-3.8-6.54-10.28-7.81-16.94-8.4-3.29-.29-6.76-.71-9.87,1.16-5.43.33-9.37,3.48-12.48,7.42-2.93,3.72-3.83,8.46-4.18,13.14-.38,5.12-.42,10.36.74,15.3,1.26,5.36,3.72,10.27,8.85,13.47,6.6,4.13,13.59,4.08,20.94,3.4,6.68-.62,10.52-4.9,14.1-9.64,1.27-1.68,2.46-2.42,4.53-2.4,8.12.1,16.23.04,24.35.05,1.12,0,2.25-.09,3.32.46,1.22.63,1.47,1.14.73,2.59-2.62,5.13-4.52,10.62-7.88,15.38-1.69.28-2.53,1.71-3.56,2.79-3.82,4-8.45,7.26-13.48,8.79-10.12,3.07-20.56,5.89-31.25,4.99-7.33-.62-14.71-1.53-21.92-3.63-7.82-2.27-14.62-6-20.53-11.47-1.27-1.17-2.49-2.49-3.38-3.95-4.17-6.81-7.39-13.93-8.41-22.04-.88-7.02-.44-13.92.78-20.74,1.8-10.09,6.28-18.97,14.4-25.48,5.66-4.53,12.1-7.75,19.4-8.93,1.29-.21,2.38-1.24,3.79-1.14,4.86-1.31,9.9-1.4,14.85-1.74,10.19-.69,20.2.9,29.99,3.66,3.81,1.07,7.23,3.16,10.73,5.08,7.88,4.31,11.87,11.66,15.99,19Z"/>
  <path class="cls-1" d="m216.62,327.64c0,.21,0,.42,0,.63-1.57,1.39-3.51.96-5.31.96-28.89.03-57.78.02-86.68.02q-5.76,0-5.76,5.76c0,4.52.02,9.05-.01,13.57,0,1.33.08,2.69-.58,3.92-.14.15-.28.29-.42.44-1.29-.59-1.23-1.75-1.23-2.9,0-6.48.05-12.96-.02-19.43-.03-2.54.8-3.66,3.58-3.65,31.05.08,62.11.05,93.16.04,1.14,0,2.27,0,3.27.64Z"/>
  <path class="cls-1" d="m151.83,419.59c-.21,0-.41,0-.62,0,0-20.24-.01-40.47-.02-60.71,0-4.92-.41-5.33-5.17-5.34-8.32,0-16.64.01-24.96-.02-1.08,0-2.28.4-3.21-.59,0,0,.04-.04.04-.04,1.19-1.07,2.67-.96,4.09-.97,8.22-.03,16.43-.05,24.65,0,4.94.03,6.16,1.25,6.17,6.27.05,19.1.03,38.21,0,57.31,0,1.41.17,2.91-.97,4.07Z"/>
  <path class="cls-1" d="m352.4,239.34c-.19-.2-.39-.39-.58-.59-1.25-2.29-3.72-2.63-5.78-3.68-5.72-2.91-11.41-5.89-17.07-8.92-3.29-1.76-6.32-1.98-9.83-.14-7.46,3.9-14.85,7.96-22.36,11.77-8.61,4.37-17.12,8.97-25.6,13.6-1.38.75-2.48,2.06-3.96,2.78-4.33,2.37-8.76,4.61-13.13,6.84-4.7,2.4-9.58,4.55-14.04,7.37-3,1.9-6.54,2.7-9.3,5.07-.93.8-2.7,1.86-3.88.57-1.06-1.16.18-2.46.93-3.54,3.45-4.96,6.58-10.13,9.77-15.25,3.62-5.81,7.95-11.31,11.42-17.27,4.38-7.52,9.52-14.55,13.94-22.03,1.2-.83,1.89-1.97,2.66-3.22,2.87-4.71,6.15-9.17,9.05-13.87,2.89-4.67,5.25-9.69,8.34-14.22,2.4-3.52,3.68-7.2,3.98-11.33.05-.68-.07-1.41.63-1.87,1.97-2.77,1.94-6.08,2.47-9.23.02-.2.03-.41.04-.61,1.79-2.38,1.78-5.25,2.1-8,.13-1.14.25-2.19.94-3.12v-.02c1.38-4.37,1.66-8.97,2.75-13.41,1.26-5.11,1.96-10.35,3.45-15.41.56-1.91-.15-3.88.6-5.73h0c1.25-2.81,1.46-5.86,2.19-8.79,1.31-5.26,2.19-10.62,3.35-15.91,2.27-6.69,3.49-13.6,4.33-20.59.12-.98-.28-2.07.6-2.89.74-.5,1.17-1.28,1.17-2.07.02-6.27,2.37-12.13,3.5-18.18.83-4.5,1.65-9.12,2.77-13.62.81-3.25,1.16-6.66,1.98-9.87,1.42-5.49,2.23-11.06,3.35-16.59.1-.48.54-1.05,1.08-.85.37.14.81.77.79,1.16-.18,4.71,1.99,8.95,2.64,13.49.72,5.01,2.02,9.91,2.87,14.9,1.55,9.1,3.8,18.08,5.82,27.1.48,2.16,1.21,4.27,1.82,6.4,0,.2,0,.4.01.6.81,1.55.69,3.33,1.23,4.95,0,.41,0,.82.01,1.23.88,3.28.81,6.8,2.44,9.9.7,3.07,1.06,6.18.89,9.33-.04.7.3,1.12.5,1.68.61,1.73,1.66,3.54,1.54,5.24-.31,4.05,1.67,7.52,2.23,11.31.76,5.12,2.13,10.13,3.11,15.2.41,2.12.1,4.91,2.24,6.6.2,5.71,2.42,11.04,3.09,16.66,0,0,0,.02,0,.02.08,6.02,2.42,11.54,3.78,17.29.84,3.54,1.91,6.97,4.25,9.86-.32,1.74.37,3.22,1.26,4.61,6.23,9.78,11.56,20.13,18.38,29.53,1.86,2.56,3.37,5.26,4.95,7.97.65,1.12,1.22,2.41,2.57,2.97,4.6,7.86,9.03,15.83,14.7,23.01.91,1.15.73,2.66,1.83,3.8,3.66,3.84,5.89,8.73,9.03,12.98,2.21,2.99,3.92,6.65,6.09,10.83-3.11-1.4-5.58-1.72-7.66-3.64-3.16-2.92-7.68-3.61-11.24-6.01-5.57-3.75-11.83-6.24-17.82-9.17-4.71-2.3-8.86-5.58-13.9-7.37-2.32-.82-4.68-2.31-6.85-3.76-1.02-.69-1.98-.98-3.13-.94-2.87-2.12-6.14-3.47-9.35-4.93Z"/>
  <path class="cls-1" d="m352.4,239.34c3.59.74,6.85,2.12,9.35,4.93-.42-.02-.84-.03-1.26-.05-2.37-2.17-5.78-2.62-8.09-4.88Z"/>
  <path class="cls-1" d="m299.95,115.9c.11,5.16-1.04,10.07-2.36,15.04-1.45,5.5-2.15,11.2-3.15,16.81-.18,1.03-.4,2.01-1.29,2.69-.12-4.23,1.24-8.2,2.09-12.26,1.01-4.78,1.88-9.59,2.86-14.37.55-2.65,1.22-5.28,1.83-7.91Z"/>
  <path class="cls-1" d="m305.5,91.2c-.66,4.88-.72,9.86-2.61,14.55-.91,2.26-.48,4.87-1.45,7.17-.43,1.02-.49,2.23-1.49,2.96,1.04-5.79,1.58-11.74,3.36-17.29.78-2.44-.11-5.44,2.18-7.4Z"/>
  <path class="cls-1" d="m293.15,150.46c-1.13,2.86,0,6.07-1.4,8.87-.41.83-.22,2.14-1.65,2.24.61-2.85,1.28-5.69,1.79-8.56.18-1.02.13-2.04,1.25-2.55Z"/>
  <path class="cls-1" d="m290.07,162.19c-.09,3.27.56,6.75-2.47,9.23.82-3.08,1.64-6.16,2.47-9.23Z"/>
  <path class="cls-1" d="m355.5,152.3c-1.41-5.48-3.71-10.8-3.09-16.66,1.08,5.54,3.22,10.89,3.09,16.66Z"/>
  <path class="cls-1" d="m341.91,86.28c-2.39-2.91-2.52-6.38-2.44-9.9.35.35,1.03.74.99,1.05-.37,3.1,1.58,5.81,1.44,8.85Z"/>
  <path class="cls-1" d="m339.46,75.15c-.87-1.53-1.26-3.19-1.23-4.95,1.59,1.36,1.15,3.22,1.23,4.95Z"/>
  <path class="cls-1" d="m130.25,416.19c-.09-.28-.04-.61-.06-.91h0c-.46-1-.81-2.05-1.39-2.97-3.99-6.37-6.82-13.35-10.33-19.97-3.64-6.87-6.79-14-10.61-20.76-2.49-4.4-4.09-9.21-6.96-13.48-1.84-2.74-3.66-5.9-4.03-9.47,0-.01-.02-.02-.02-.03-1.12-1.43-2.74-2.71-3.25-4.33-1.68-5.31-4.48-10.01-7.07-14.87-.92-1.73-1.91-2.41-3.77-2.4-10.37.04-20.74.05-31.11,0-1.65,0-2.57.56-3.36,2.04-3.99,7.38-7.66,14.92-11.39,22.43-1.7,3.42-2.93,7.13-5.45,10.12h0c-.28.43-.67.82-.84,1.28-3.03,8.43-8,15.92-11.6,24.09-2.24,5.09-5.2,9.86-7.39,14.97-2.33,5.43-5.94,10.06-8.6,15.26,0,.07.02.15.02.23.1,1.49-.4,3.36,2.08,3.41,2.56.04,5.29.86,7.59.41,5.73-1.11,11.35.56,17.08-.2,5.2-.69,5.19.26,7.86-5.81.93-2.1,1.49-4.43,3.09-6.18.17-.18.34-.36.53-.52.51-1.11,1.48-1.27,2.57-1.27,15.6,0,31.21,0,46.81,0,2.31,0,3.86,1.49,4.19,3.38.54,3.19,2.67,5.44,4.04,8.12,1.09,2.14,3.11,3.07,5.72,2.34,1.25-.35,2.69-.4,3.96-.17,6.02,1.07,12.08.47,18.1.45,5.02-.01,5.21-.56,3.58-5.17Zm-74.24-30.63c-2.12.03-2.51-.78-1.64-2.62,3.81-8.15,7.58-16.32,11.36-24.49.34-.72.49-1.7,1.51-1.73.97-.02,1.29.81,1.64,1.59,3.71,8.07,7.39,16.16,11.21,24.18,1.11,2.32.67,3.12-1.91,3.05-3.59-.1-7.18-.02-10.77-.02v.03c-3.8,0-7.59-.04-11.39.02Z"/>
  <path class="cls-1" d="m151.83,419.59c0-20.62,0-41.25-.01-61.87,0-4.44-.33-4.78-4.69-4.79-9.75-.01-19.5-.02-29.24-.03-.02-7.2.06-14.4-.1-21.6-.06-2.47.74-3.12,3.16-3.12,31.89.08,63.77.07,95.66.08.48.82.7,1.71.61,2.66-.6,6.28-.03,12.56.04,18.84.03,2.43-.84,3.24-3.24,3.21-9.46-.09-18.92.07-28.37-.09-2.66-.04-3.36,1.16-3.6,3.39-.31,2.9.61,5.69.6,8.57-.01,17.17,0,34.34,0,51.51,0,4.33-.7,4.69-4.96,4.56-7.19-.22-14.39-.1-21.59-.05-1.6.01-3.06-.15-4.28-1.27Z"/>
  <path class="cls-1" d="m266.62,351.7c2.68-2.98,6.43-3.35,10.01-4.04,6.51-1.25,13.01-.48,18.73,2.55,7.06,3.74,9.98,10.72,10.64,18.33.43,4.96.4,10.01-.42,15.04-1.12,6.86-6.5,14.92-15.02,17.11-6.27,1.61-12.33,1.43-18.33.2-3.89-.8-7.59-3.06-9.35-7.21.67-.36,1.28-.1,1.89.18,8.45,6.64,17.77,7.48,27.54,3.7,5.94-2.3,8.96-7.28,10.38-13.27,1.47-6.17,1.33-12.35.12-18.58-1.69-8.7-6.61-13.77-15.39-15.34-2.62-.47-5.24-1.06-7.93-.89-3.44-.23-6.71.36-9.77,2-.99.53-2,1.15-3.1.22Z"/>
  <path class="cls-1" d="m264.32,394.23c-.48-.18-.96-.37-1.44-.55-3.61-2.42-4.3-6.37-4.8-10.13-.96-7.2-1.25-14.39.96-21.58,1.38-4.49,4.17-7.51,7.58-10.27,2.73-.07,4.59-2.4,7.35-2.68,1.93-.2,3.83-.45,5.77-.33-.39,1.47-1.72,1.32-2.75,1.46-11.12,1.51-16.18,9.74-17.03,19.82-.43,5.08-.14,9.99.98,14.91.51,2.23,1.37,4.28,2.52,6.24.55.94,1.41,1.83.86,3.1Z"/>
  <path class="cls-1" d="m82.41,383.3c-2.32-3.01-3.41-6.71-4.88-10.01-2.36-5.35-5.46-10.38-7.3-15.97-.41-1.25-1.21-1.67-2.8-1.59-2.35.12-3.04,1.71-4.07,3.16-1.33,1.88-1.24,4.27-2.38,6.29-2.95,5.24-4.88,10.98-7.88,16.22-1.9,3.31.06,6.07,3.91,6.09,3.39.02,6.78,0,10.17,0,3.7,0,7.4.06,11.09-.02,2.68-.06,5.27-2.71,4.14-4.17Zm-4.24,2.24c-3.59-.1-7.18-.02-10.77-.02v.03c-3.8,0-7.59-.04-11.39.02-2.12.03-2.51-.78-1.64-2.62,3.81-8.15,7.58-16.32,11.36-24.49.34-.72.49-1.7,1.51-1.73.97-.02,1.29.81,1.64,1.59,3.71,8.07,7.39,16.16,11.21,24.18,1.11,2.32.67,3.12-1.91,3.05Z"/>
</svg>