<?xml version="1.0" encoding="UTF-8"?>
<svg id="Layer_1" data-name="Layer 1" xmlns="http://www.w3.org/2000/svg" viewBox="0 0 335.83 341.51">
  <defs>
    <style>
      .cls-1 {
        stroke-width: 0px;
      }
    </style>
  </defs>
  <path class="cls-1" d="m112.05,64.29c10.64-18.28,21.19-35.4,30.63-53.11C146.98,3.1,151.89-.66,161.25.09c10.32.83,20.76.38,31.14.2,5.22-.09,8.38,1.95,10.8,7.34,5.62,12.51,12.65,24.32,20.47,35.59,3.18,4.57,3.36,7.59.74,11.81-5.94,9.56-11.58,19.33-16.94,29.22-2.84,5.23-4.47,6.23-7.77.21-7.11-12.99-14.77-25.67-22.24-38.46-.87-1.49-1.98-2.83-3.77-5.34-9.47,16.31-18.5,31.84-27.51,47.38-22.14,38.21-44.26,76.43-66.41,114.63-6.03,10.39-6.11,10.37-12.3-.41-4.43-7.71-8.5-15.65-13.44-23.02-3.47-5.18-3.43-9.29-.24-14.59,10.53-17.53,20.45-35.43,30.95-52.99,2.6-4.35,2.78-7.49.08-11.98-10.26-16.99-19.66-34.5-30.09-51.38-4.39-7.11-4.03-12.52,1.29-19.59,4.47-5.94,8.35-12.3,11.32-19.1,4.62-10.57,7.32-10.26,11.19-3.43,10.81,19.07,21.89,37.98,33.53,58.11Z"/>
  <path class="cls-1" d="m235.83,147.2c-9.49,16.38-19.26,31.57-27.28,47.64-5.96,11.93-13.09,18.32-27.24,16.12-10.44-1.62-22.76,3.3-31.43-1.8-8.63-5.07-10.47-18.23-17.22-26.31-12.45-14.9-11.58-28.53.36-43.01,4.39-5.33,7.26-11.91,11.58-19.18,9.99,17.1,19.31,33.04,29.48,50.45,8-13.75,15.26-26.18,22.47-38.63,21.63-37.34,43.25-74.7,64.87-112.05,3.12-5.38,6.36-10.69,9.39-16.12,2.33-4.17,4.55-4.29,6.95-.17,6.25,10.76,12.38,21.59,18.78,32.25,2.26,3.76-.23,6.23-1.75,8.88-10.02,17.48-19.93,35.03-30.41,52.24-3.49,5.74-3.87,10.04-.19,16,10.42,16.88,19.89,34.34,30.11,51.36,2.91,4.85,3.58,8.58.22,13.63-5.57,8.36-10.18,17.37-15.34,26.01-4.69,7.84-5.21,7.82-9.97-.33-9.56-16.37-19.03-32.8-28.56-49.19-1.32-2.26-2.75-4.46-4.81-7.79Z"/>
  <path class="cls-1" d="m167.47,304.92c.6-6.65-1.17-9.19-7.16-9-9.77.3-19.55.08-29.32.08v.04c-9.77,0-19.56.36-29.31-.13-7.19-.35-8.67,2.92-7.96,10.49.81,8.81.89,17.67,0,26.47-.65,6.41,1.57,8.2,6.68,8.18,20.14-.09,40.28-.14,60.41,0,5.26.04,7.06-2.09,6.7-7.74-.6-9.46-.9-18.95-.04-28.39Zm-25.63,20.53c-3.8-.43-7.67-.08-11.51-.09-3.25,0-6.51-.13-9.75.03-4.81.23-8.25.19-8.36-6.68-.11-7.11,3.12-7.59,8.57-7.35,7.08.31,14.19.39,21.26,0,5.67-.32,6.84,2.07,6.9,7.27.06,5.5-1.68,7.43-7.11,6.82Z"/>
  <path class="cls-1" d="m45.76,318.46c7.43-13.57,14.08-25.79,20.82-37.96,2.24-4.04,20.96-7.55,24.14-4.57,1.79,1.67.33,3.26-.51,4.72-10.96,18.97-21.81,38.01-33.02,56.84-3.32,5.58-19.89,5.23-23.22-.37-11.02-18.6-21.76-37.36-32.67-56.03-2.43-4.16-1.51-6.01,3.38-5.62.3.02.81,0,1.11-.04,11.3-1.8,19.13,1.25,23.71,13.18,3.87,10.1,10.34,19.2,16.26,29.84Z"/>
  <path class="cls-1" d="m302.26,338.35c-15.35,3.64-27.57,3.66-38.27-9.1-13.02-15.52-14.12-14.6.12-28.8,13.85-13.81,16.25-14.56,38.09-11.16-7.05,7.21-13.19,14.11-20.01,20.25-4.54,4.09-3.96,6.67.26,10.34,6.81,5.92,13.23,12.29,19.81,18.47Z"/>
  <path class="cls-1" d="m206.87,307.65c0,8.9-.24,17.81.09,26.7.2,5.22-1.44,7.46-7.38,6.55-2.16-.33-4.37-.24-6.53.11-6.06.97-7.55-1.42-7.45-6.94.3-17.2.31-34.42-.01-51.62-.1-5.26,1.02-7.19,6.75-7.16,14.54.07,14.54-.25,14.54,14.56,0,5.93,0,11.87,0,17.8Z"/>
  <path class="cls-1" d="m335.67,308.96c0,8.27-.23,16.55.09,24.81.2,5.09-.97,7.35-6.74,7.42-14.79.17-14.79.47-14.78-14.3,0-14.48.42-28.97-.17-43.42-.29-7,2.17-9,8.53-8.05,1.71.25,3.45.26,5.15,0,6.34-.95,8.41,1.59,8.04,7.84-.5,8.54-.12,17.13-.12,25.7Z"/>
  <path class="cls-1" d="m226.98,307.64c0-8.58.22-17.17-.08-25.74-.18-5.05,1.62-6.51,6.64-6.57,14.48-.18,14.48-.41,14.49,14.34,0,14.79-.22,29.59.12,44.37.12,5-1.24,7.4-5.79,7.11-1.04-.06-2.77-.13-3.81-.13q-11.56.06-11.56-11.2c0-7.4,0-14.79,0-22.19Z"/>
  <path class="cls-1" d="m113.21,289.64c-2.92-1.77-9.38,3.69-10.48-4.45-.87-6.46,0-11.31,8.44-9.87,1.73.3,3.54.11,5.32.08,5.01-.09,9.7-1.15,9.77,7.08.07,8.31-4.69,7.22-9.69,7.16-.89-.01-1.77,0-3.35,0Z"/>
  <path class="cls-1" d="m146.16,289.65c-2.9-2.22-9.96,4.43-10.95-4.79-.72-6.74.47-10.98,8.59-9.47,1.71.32,3.53,0,5.29.07,4.68.15,9.86-1.83,9.9,6.78.04,8.86-5.15,7.46-10.36,7.42-.59,0-1.18,0-2.47,0Z"/>
</svg>